<svg width="891" height="434" viewBox="0 0 891 434" fill="none" xmlns="http://www.w3.org/2000/svg">
<rect x="76" y="39" width="84" height="79" rx="27" fill="#FE207C"/>
<rect x="334" y="39" width="84" height="79" rx="27" fill="#FE207C"/>
<path d="M77.2744 363.891C77.2744 363.891 65.2744 165.967 247.774 165.967C430.274 165.968 417.774 363.891 417.774 363.891" stroke="#FE207C" stroke-width="24" stroke-linecap="round"/>
<path d="M539.758 184.625L548.148 162.875H555.719L544.023 190.391C543.617 191.328 543.148 192.227 542.617 193.086C542.102 193.93 541.484 194.688 540.766 195.359C540.047 196.016 539.188 196.539 538.188 196.93C537.188 197.305 535.992 197.492 534.602 197.492C534.258 197.492 533.836 197.484 533.336 197.469C532.836 197.453 532.438 197.43 532.141 197.398L532.094 191.914C532.281 191.961 532.578 191.992 532.984 192.008C533.391 192.008 533.688 192.008 533.875 192.008C534.797 192.008 535.523 191.875 536.055 191.609C536.586 191.344 537.008 190.969 537.32 190.484C537.648 189.984 537.938 189.398 538.188 188.727L539.758 184.625ZM534.203 162.875L541.984 179.773L544.164 187.531L538.938 187.625L526.656 162.875H534.203ZM583.539 186.406H575.594L575.547 181.977H582.109C582.984 181.977 583.695 181.891 584.242 181.719C584.789 181.531 585.188 181.258 585.438 180.898C585.703 180.523 585.836 180.07 585.836 179.539C585.836 179.07 585.75 178.672 585.578 178.344C585.422 178 585.18 177.719 584.852 177.5C584.523 177.281 584.109 177.125 583.609 177.031C583.125 176.922 582.555 176.867 581.898 176.867H578.102V197H571.352V171.641H581.898C583.555 171.641 585.039 171.789 586.352 172.086C587.664 172.367 588.781 172.797 589.703 173.375C590.641 173.953 591.352 174.688 591.836 175.578C592.336 176.453 592.586 177.492 592.586 178.695C592.586 179.477 592.406 180.211 592.047 180.898C591.703 181.586 591.188 182.195 590.5 182.727C589.812 183.258 588.961 183.695 587.945 184.039C586.945 184.367 585.789 184.57 584.477 184.648L583.539 186.406ZM583.539 197H573.93L576.25 191.773H583.539C584.367 191.773 585.047 191.672 585.578 191.469C586.109 191.266 586.5 190.969 586.75 190.578C587.016 190.172 587.148 189.688 587.148 189.125C587.148 188.578 587.031 188.102 586.797 187.695C586.562 187.289 586.18 186.977 585.648 186.758C585.133 186.523 584.43 186.406 583.539 186.406H577.234L577.281 181.977H584.453L586.094 183.758C587.875 183.867 589.344 184.203 590.5 184.766C591.656 185.328 592.508 186.047 593.055 186.922C593.617 187.781 593.898 188.727 593.898 189.758C593.898 190.961 593.672 192.016 593.219 192.922C592.766 193.828 592.094 194.586 591.203 195.195C590.328 195.789 589.25 196.242 587.969 196.555C586.688 196.852 585.211 197 583.539 197ZM611.734 191.281V179.984C611.734 179.172 611.602 178.477 611.336 177.898C611.07 177.305 610.656 176.844 610.094 176.516C609.547 176.188 608.836 176.023 607.961 176.023C607.211 176.023 606.562 176.156 606.016 176.422C605.469 176.672 605.047 177.039 604.75 177.523C604.453 177.992 604.305 178.547 604.305 179.188H597.555C597.555 178.109 597.805 177.086 598.305 176.117C598.805 175.148 599.531 174.297 600.484 173.562C601.438 172.812 602.57 172.227 603.883 171.805C605.211 171.383 606.695 171.172 608.336 171.172C610.305 171.172 612.055 171.5 613.586 172.156C615.117 172.812 616.32 173.797 617.195 175.109C618.086 176.422 618.531 178.062 618.531 180.031V190.883C618.531 192.273 618.617 193.414 618.789 194.305C618.961 195.18 619.211 195.945 619.539 196.602V197H612.719C612.391 196.312 612.141 195.453 611.969 194.422C611.812 193.375 611.734 192.328 611.734 191.281ZM612.625 181.555L612.672 185.375H608.898C608.008 185.375 607.234 185.477 606.578 185.68C605.922 185.883 605.383 186.172 604.961 186.547C604.539 186.906 604.227 187.328 604.023 187.812C603.836 188.297 603.742 188.828 603.742 189.406C603.742 189.984 603.875 190.508 604.141 190.977C604.406 191.43 604.789 191.789 605.289 192.055C605.789 192.305 606.375 192.43 607.047 192.43C608.062 192.43 608.945 192.227 609.695 191.82C610.445 191.414 611.023 190.914 611.43 190.32C611.852 189.727 612.07 189.164 612.086 188.633L613.867 191.492C613.617 192.133 613.273 192.797 612.836 193.484C612.414 194.172 611.875 194.82 611.219 195.43C610.562 196.023 609.773 196.516 608.852 196.906C607.93 197.281 606.836 197.469 605.57 197.469C603.961 197.469 602.5 197.148 601.188 196.508C599.891 195.852 598.859 194.953 598.094 193.812C597.344 192.656 596.969 191.344 596.969 189.875C596.969 188.547 597.219 187.367 597.719 186.336C598.219 185.305 598.953 184.438 599.922 183.734C600.906 183.016 602.133 182.477 603.602 182.117C605.07 181.742 606.773 181.555 608.711 181.555H612.625ZM634.211 192.195C635.039 192.195 635.773 192.039 636.414 191.727C637.055 191.398 637.555 190.945 637.914 190.367C638.289 189.773 638.484 189.078 638.5 188.281H644.852C644.836 190.062 644.359 191.648 643.422 193.039C642.484 194.414 641.227 195.5 639.648 196.297C638.07 197.078 636.305 197.469 634.352 197.469C632.383 197.469 630.664 197.141 629.195 196.484C627.742 195.828 626.531 194.922 625.562 193.766C624.594 192.594 623.867 191.234 623.383 189.688C622.898 188.125 622.656 186.453 622.656 184.672V183.992C622.656 182.195 622.898 180.523 623.383 178.977C623.867 177.414 624.594 176.055 625.562 174.898C626.531 173.727 627.742 172.812 629.195 172.156C630.648 171.5 632.352 171.172 634.305 171.172C636.383 171.172 638.203 171.57 639.766 172.367C641.344 173.164 642.578 174.305 643.469 175.789C644.375 177.258 644.836 179 644.852 181.016H638.5C638.484 180.172 638.305 179.406 637.961 178.719C637.633 178.031 637.148 177.484 636.508 177.078C635.883 176.656 635.109 176.445 634.188 176.445C633.203 176.445 632.398 176.656 631.773 177.078C631.148 177.484 630.664 178.047 630.32 178.766C629.977 179.469 629.734 180.273 629.594 181.18C629.469 182.07 629.406 183.008 629.406 183.992V184.672C629.406 185.656 629.469 186.602 629.594 187.508C629.719 188.414 629.953 189.219 630.297 189.922C630.656 190.625 631.148 191.18 631.773 191.586C632.398 191.992 633.211 192.195 634.211 192.195ZM678.086 181.883V187.133H665.195V181.883H678.086ZM667.445 171.641V197H660.695V171.641H667.445ZM682.656 171.641V197H675.883V171.641H682.656ZM699.578 197.469C697.609 197.469 695.844 197.156 694.281 196.531C692.719 195.891 691.391 195.008 690.297 193.883C689.219 192.758 688.391 191.453 687.812 189.969C687.234 188.469 686.945 186.875 686.945 185.188V184.25C686.945 182.328 687.219 180.57 687.766 178.977C688.312 177.383 689.094 176 690.109 174.828C691.141 173.656 692.391 172.758 693.859 172.133C695.328 171.492 696.984 171.172 698.828 171.172C700.625 171.172 702.219 171.469 703.609 172.062C705 172.656 706.164 173.5 707.102 174.594C708.055 175.688 708.773 177 709.258 178.531C709.742 180.047 709.984 181.734 709.984 183.594V186.406H689.828V181.906H703.352V181.391C703.352 180.453 703.18 179.617 702.836 178.883C702.508 178.133 702.008 177.539 701.336 177.102C700.664 176.664 699.805 176.445 698.758 176.445C697.867 176.445 697.102 176.641 696.461 177.031C695.82 177.422 695.297 177.969 694.891 178.672C694.5 179.375 694.203 180.203 694 181.156C693.812 182.094 693.719 183.125 693.719 184.25V185.188C693.719 186.203 693.859 187.141 694.141 188C694.438 188.859 694.852 189.602 695.383 190.227C695.93 190.852 696.586 191.336 697.352 191.68C698.133 192.023 699.016 192.195 700 192.195C701.219 192.195 702.352 191.961 703.398 191.492C704.461 191.008 705.375 190.281 706.141 189.312L709.422 192.875C708.891 193.641 708.164 194.375 707.242 195.078C706.336 195.781 705.242 196.359 703.961 196.812C702.68 197.25 701.219 197.469 699.578 197.469ZM726.461 171.641V197H719.688V171.641H726.461ZM734.617 171.641V176.867H711.648V171.641H734.617ZM533.195 227.641H539.945L539.734 236.125C539.672 238.844 539.359 241.18 538.797 243.133C538.234 245.086 537.484 246.727 536.547 248.055C535.609 249.383 534.539 250.445 533.336 251.242C532.148 252.023 530.898 252.609 529.586 253H528.32L528.25 247.797L528.953 247.727C529.75 246.898 530.406 246.094 530.922 245.312C531.438 244.516 531.836 243.68 532.117 242.805C532.398 241.93 532.602 240.953 532.727 239.875C532.867 238.797 532.953 237.547 532.984 236.125L533.195 227.641ZM535.023 227.641H551.828V253H545.102V233.055H535.023V227.641ZM526.773 247.727H555.461V260.617H548.711V253H533.688V260.617H526.773V247.727ZM557.828 240.578V240.086C557.828 238.227 558.094 236.516 558.625 234.953C559.156 233.375 559.93 232.008 560.945 230.852C561.961 229.695 563.211 228.797 564.695 228.156C566.18 227.5 567.883 227.172 569.805 227.172C571.727 227.172 573.438 227.5 574.938 228.156C576.438 228.797 577.695 229.695 578.711 230.852C579.742 232.008 580.523 233.375 581.055 234.953C581.586 236.516 581.852 238.227 581.852 240.086V240.578C581.852 242.422 581.586 244.133 581.055 245.711C580.523 247.273 579.742 248.641 578.711 249.812C577.695 250.969 576.445 251.867 574.961 252.508C573.477 253.148 571.773 253.469 569.852 253.469C567.93 253.469 566.219 253.148 564.719 252.508C563.234 251.867 561.977 250.969 560.945 249.812C559.93 248.641 559.156 247.273 558.625 245.711C558.094 244.133 557.828 242.422 557.828 240.578ZM564.578 240.086V240.578C564.578 241.641 564.672 242.633 564.859 243.555C565.047 244.477 565.344 245.289 565.75 245.992C566.172 246.68 566.719 247.219 567.391 247.609C568.062 248 568.883 248.195 569.852 248.195C570.789 248.195 571.594 248 572.266 247.609C572.938 247.219 573.477 246.68 573.883 245.992C574.289 245.289 574.586 244.477 574.773 243.555C574.977 242.633 575.078 241.641 575.078 240.578V240.086C575.078 239.055 574.977 238.086 574.773 237.18C574.586 236.258 574.281 235.445 573.859 234.742C573.453 234.023 572.914 233.461 572.242 233.055C571.57 232.648 570.758 232.445 569.805 232.445C568.852 232.445 568.039 232.648 567.367 233.055C566.711 233.461 566.172 234.023 565.75 234.742C565.344 235.445 565.047 236.258 564.859 237.18C564.672 238.086 564.578 239.055 564.578 240.086ZM596.477 248.195C597.305 248.195 598.039 248.039 598.68 247.727C599.32 247.398 599.82 246.945 600.18 246.367C600.555 245.773 600.75 245.078 600.766 244.281H607.117C607.102 246.062 606.625 247.648 605.688 249.039C604.75 250.414 603.492 251.5 601.914 252.297C600.336 253.078 598.57 253.469 596.617 253.469C594.648 253.469 592.93 253.141 591.461 252.484C590.008 251.828 588.797 250.922 587.828 249.766C586.859 248.594 586.133 247.234 585.648 245.688C585.164 244.125 584.922 242.453 584.922 240.672V239.992C584.922 238.195 585.164 236.523 585.648 234.977C586.133 233.414 586.859 232.055 587.828 230.898C588.797 229.727 590.008 228.812 591.461 228.156C592.914 227.5 594.617 227.172 596.57 227.172C598.648 227.172 600.469 227.57 602.031 228.367C603.609 229.164 604.844 230.305 605.734 231.789C606.641 233.258 607.102 235 607.117 237.016H600.766C600.75 236.172 600.57 235.406 600.227 234.719C599.898 234.031 599.414 233.484 598.773 233.078C598.148 232.656 597.375 232.445 596.453 232.445C595.469 232.445 594.664 232.656 594.039 233.078C593.414 233.484 592.93 234.047 592.586 234.766C592.242 235.469 592 236.273 591.859 237.18C591.734 238.07 591.672 239.008 591.672 239.992V240.672C591.672 241.656 591.734 242.602 591.859 243.508C591.984 244.414 592.219 245.219 592.562 245.922C592.922 246.625 593.414 247.18 594.039 247.586C594.664 247.992 595.477 248.195 596.477 248.195ZM623.945 227.641V253H617.172V227.641H623.945ZM632.102 227.641V232.867H609.133V227.641H632.102ZM643.352 250.141L650.078 227.641H657.32L647.125 256.82C646.906 257.461 646.609 258.148 646.234 258.883C645.875 259.617 645.383 260.312 644.758 260.969C644.148 261.641 643.375 262.188 642.438 262.609C641.516 263.031 640.383 263.242 639.039 263.242C638.398 263.242 637.875 263.203 637.469 263.125C637.062 263.047 636.578 262.938 636.016 262.797V257.852C636.188 257.852 636.367 257.852 636.555 257.852C636.742 257.867 636.922 257.875 637.094 257.875C637.984 257.875 638.711 257.773 639.273 257.57C639.836 257.367 640.289 257.055 640.633 256.633C640.977 256.227 641.25 255.695 641.453 255.039L643.352 250.141ZM640.539 227.641L646.047 246.016L647.008 253.164L642.414 253.656L633.297 227.641H640.539ZM677.078 227.641V232.938H664.797V227.641H677.078ZM666.742 227.641V253H659.992V227.641H666.742ZM682 227.641V253H675.227V227.641H682ZM700.891 247.281V235.984C700.891 235.172 700.758 234.477 700.492 233.898C700.227 233.305 699.812 232.844 699.25 232.516C698.703 232.188 697.992 232.023 697.117 232.023C696.367 232.023 695.719 232.156 695.172 232.422C694.625 232.672 694.203 233.039 693.906 233.523C693.609 233.992 693.461 234.547 693.461 235.188H686.711C686.711 234.109 686.961 233.086 687.461 232.117C687.961 231.148 688.688 230.297 689.641 229.562C690.594 228.812 691.727 228.227 693.039 227.805C694.367 227.383 695.852 227.172 697.492 227.172C699.461 227.172 701.211 227.5 702.742 228.156C704.273 228.812 705.477 229.797 706.352 231.109C707.242 232.422 707.688 234.062 707.688 236.031V246.883C707.688 248.273 707.773 249.414 707.945 250.305C708.117 251.18 708.367 251.945 708.695 252.602V253H701.875C701.547 252.312 701.297 251.453 701.125 250.422C700.969 249.375 700.891 248.328 700.891 247.281ZM701.781 237.555L701.828 241.375H698.055C697.164 241.375 696.391 241.477 695.734 241.68C695.078 241.883 694.539 242.172 694.117 242.547C693.695 242.906 693.383 243.328 693.18 243.812C692.992 244.297 692.898 244.828 692.898 245.406C692.898 245.984 693.031 246.508 693.297 246.977C693.562 247.43 693.945 247.789 694.445 248.055C694.945 248.305 695.531 248.43 696.203 248.43C697.219 248.43 698.102 248.227 698.852 247.82C699.602 247.414 700.18 246.914 700.586 246.32C701.008 245.727 701.227 245.164 701.242 244.633L703.023 247.492C702.773 248.133 702.43 248.797 701.992 249.484C701.57 250.172 701.031 250.82 700.375 251.43C699.719 252.023 698.93 252.516 698.008 252.906C697.086 253.281 695.992 253.469 694.727 253.469C693.117 253.469 691.656 253.148 690.344 252.508C689.047 251.852 688.016 250.953 687.25 249.812C686.5 248.656 686.125 247.344 686.125 245.875C686.125 244.547 686.375 243.367 686.875 242.336C687.375 241.305 688.109 240.438 689.078 239.734C690.062 239.016 691.289 238.477 692.758 238.117C694.227 237.742 695.93 237.555 697.867 237.555H701.781ZM732.039 227.641V253H725.289V227.641H732.039ZM748.516 227.641L737.594 243.508H730.844L730.023 237.273H734.5L739.961 227.641H748.516ZM740.266 253L734.031 242.289L739.914 239.031L749.312 253H740.266ZM772.984 232.445C772.188 232.445 771.484 232.609 770.875 232.938C770.281 233.25 769.82 233.695 769.492 234.273C769.164 234.852 769 235.539 769 236.336H762.648C762.648 234.57 763.109 233 764.031 231.625C764.953 230.234 766.195 229.148 767.758 228.367C769.336 227.57 771.078 227.172 772.984 227.172C774.922 227.172 776.617 227.5 778.07 228.156C779.539 228.812 780.766 229.727 781.75 230.898C782.75 232.055 783.5 233.414 784 234.977C784.5 236.523 784.75 238.195 784.75 239.992V240.672C784.75 242.453 784.5 244.125 784 245.688C783.5 247.234 782.75 248.594 781.75 249.766C780.766 250.922 779.547 251.828 778.094 252.484C776.641 253.141 774.961 253.469 773.055 253.469C771.008 253.469 769.195 253.07 767.617 252.273C766.055 251.477 764.836 250.344 763.961 248.875C763.086 247.391 762.648 245.641 762.648 243.625H769C769 244.484 769.156 245.258 769.469 245.945C769.797 246.633 770.258 247.18 770.852 247.586C771.445 247.992 772.18 248.195 773.055 248.195C773.992 248.195 774.773 247.992 775.398 247.586C776.039 247.164 776.547 246.602 776.922 245.898C777.297 245.195 777.562 244.391 777.719 243.484C777.891 242.578 777.977 241.641 777.977 240.672V239.992C777.977 238.992 777.891 238.047 777.719 237.156C777.562 236.25 777.297 235.445 776.922 234.742C776.547 234.023 776.039 233.461 775.398 233.055C774.773 232.648 773.969 232.445 772.984 232.445ZM780.156 238.188V242.242H771.039V238.188H780.156ZM800.383 227.641V253H793.609V227.641H800.383ZM808.539 227.641V232.867H785.57V227.641H808.539ZM810.109 240.578V240.086C810.109 238.227 810.375 236.516 810.906 234.953C811.438 233.375 812.211 232.008 813.227 230.852C814.242 229.695 815.492 228.797 816.977 228.156C818.461 227.5 820.164 227.172 822.086 227.172C824.008 227.172 825.719 227.5 827.219 228.156C828.719 228.797 829.977 229.695 830.992 230.852C832.023 232.008 832.805 233.375 833.336 234.953C833.867 236.516 834.133 238.227 834.133 240.086V240.578C834.133 242.422 833.867 244.133 833.336 245.711C832.805 247.273 832.023 248.641 830.992 249.812C829.977 250.969 828.727 251.867 827.242 252.508C825.758 253.148 824.055 253.469 822.133 253.469C820.211 253.469 818.5 253.148 817 252.508C815.516 251.867 814.258 250.969 813.227 249.812C812.211 248.641 811.438 247.273 810.906 245.711C810.375 244.133 810.109 242.422 810.109 240.578ZM816.859 240.086V240.578C816.859 241.641 816.953 242.633 817.141 243.555C817.328 244.477 817.625 245.289 818.031 245.992C818.453 246.68 819 247.219 819.672 247.609C820.344 248 821.164 248.195 822.133 248.195C823.07 248.195 823.875 248 824.547 247.609C825.219 247.219 825.758 246.68 826.164 245.992C826.57 245.289 826.867 244.477 827.055 243.555C827.258 242.633 827.359 241.641 827.359 240.578V240.086C827.359 239.055 827.258 238.086 827.055 237.18C826.867 236.258 826.562 235.445 826.141 234.742C825.734 234.023 825.195 233.461 824.523 233.055C823.852 232.648 823.039 232.445 822.086 232.445C821.133 232.445 820.32 232.648 819.648 233.055C818.992 233.461 818.453 234.023 818.031 234.742C817.625 235.445 817.328 236.258 817.141 237.18C816.953 238.086 816.859 239.055 816.859 240.086ZM845.008 243.578L853.516 227.641H860.266V253H853.516V237.039L845.008 253H838.258V227.641H845.008V243.578ZM852.742 217.445H857.547C857.547 218.789 857.211 219.984 856.539 221.031C855.883 222.062 854.945 222.875 853.727 223.469C852.508 224.047 851.07 224.336 849.414 224.336C846.898 224.336 844.906 223.695 843.438 222.414C841.984 221.133 841.258 219.477 841.258 217.445H846.039C846.039 218.258 846.289 218.984 846.789 219.625C847.305 220.266 848.18 220.586 849.414 220.586C850.633 220.586 851.492 220.266 851.992 219.625C852.492 218.984 852.742 218.258 852.742 217.445ZM539.102 304.195C539.93 304.195 540.664 304.039 541.305 303.727C541.945 303.398 542.445 302.945 542.805 302.367C543.18 301.773 543.375 301.078 543.391 300.281H549.742C549.727 302.062 549.25 303.648 548.312 305.039C547.375 306.414 546.117 307.5 544.539 308.297C542.961 309.078 541.195 309.469 539.242 309.469C537.273 309.469 535.555 309.141 534.086 308.484C532.633 307.828 531.422 306.922 530.453 305.766C529.484 304.594 528.758 303.234 528.273 301.688C527.789 300.125 527.547 298.453 527.547 296.672V295.992C527.547 294.195 527.789 292.523 528.273 290.977C528.758 289.414 529.484 288.055 530.453 286.898C531.422 285.727 532.633 284.812 534.086 284.156C535.539 283.5 537.242 283.172 539.195 283.172C541.273 283.172 543.094 283.57 544.656 284.367C546.234 285.164 547.469 286.305 548.359 287.789C549.266 289.258 549.727 291 549.742 293.016H543.391C543.375 292.172 543.195 291.406 542.852 290.719C542.523 290.031 542.039 289.484 541.398 289.078C540.773 288.656 540 288.445 539.078 288.445C538.094 288.445 537.289 288.656 536.664 289.078C536.039 289.484 535.555 290.047 535.211 290.766C534.867 291.469 534.625 292.273 534.484 293.18C534.359 294.07 534.297 295.008 534.297 295.992V296.672C534.297 297.656 534.359 298.602 534.484 299.508C534.609 300.414 534.844 301.219 535.188 301.922C535.547 302.625 536.039 303.18 536.664 303.586C537.289 303.992 538.102 304.195 539.102 304.195ZM566.57 283.641V309H559.797V283.641H566.57ZM574.727 283.641V288.867H551.758V283.641H574.727ZM584.922 288.516V318.75H578.172V283.641H584.43L584.922 288.516ZM600.977 296.039V296.531C600.977 298.375 600.758 300.086 600.32 301.664C599.898 303.242 599.273 304.617 598.445 305.789C597.617 306.945 596.586 307.852 595.352 308.508C594.133 309.148 592.727 309.469 591.133 309.469C589.586 309.469 588.242 309.156 587.102 308.531C585.961 307.906 585 307.031 584.219 305.906C583.453 304.766 582.836 303.445 582.367 301.945C581.898 300.445 581.539 298.836 581.289 297.117V295.828C581.539 293.984 581.898 292.297 582.367 290.766C582.836 289.219 583.453 287.883 584.219 286.758C585 285.617 585.953 284.734 587.078 284.109C588.219 283.484 589.555 283.172 591.086 283.172C592.695 283.172 594.109 283.477 595.328 284.086C596.562 284.695 597.594 285.57 598.422 286.711C599.266 287.852 599.898 289.211 600.32 290.789C600.758 292.367 600.977 294.117 600.977 296.039ZM594.203 296.531V296.039C594.203 294.961 594.109 293.969 593.922 293.062C593.75 292.141 593.469 291.336 593.078 290.648C592.703 289.961 592.203 289.43 591.578 289.055C590.969 288.664 590.227 288.469 589.352 288.469C588.43 288.469 587.641 288.617 586.984 288.914C586.344 289.211 585.82 289.641 585.414 290.203C585.008 290.766 584.703 291.438 584.5 292.219C584.297 293 584.172 293.883 584.125 294.867V298.125C584.203 299.281 584.422 300.32 584.781 301.242C585.141 302.148 585.695 302.867 586.445 303.398C587.195 303.93 588.18 304.195 589.398 304.195C590.289 304.195 591.039 304 591.648 303.609C592.258 303.203 592.75 302.648 593.125 301.945C593.516 301.242 593.789 300.43 593.945 299.508C594.117 298.586 594.203 297.594 594.203 296.531ZM618.859 303.281V291.984C618.859 291.172 618.727 290.477 618.461 289.898C618.195 289.305 617.781 288.844 617.219 288.516C616.672 288.188 615.961 288.023 615.086 288.023C614.336 288.023 613.688 288.156 613.141 288.422C612.594 288.672 612.172 289.039 611.875 289.523C611.578 289.992 611.43 290.547 611.43 291.188H604.68C604.68 290.109 604.93 289.086 605.43 288.117C605.93 287.148 606.656 286.297 607.609 285.562C608.562 284.812 609.695 284.227 611.008 283.805C612.336 283.383 613.82 283.172 615.461 283.172C617.43 283.172 619.18 283.5 620.711 284.156C622.242 284.812 623.445 285.797 624.32 287.109C625.211 288.422 625.656 290.062 625.656 292.031V302.883C625.656 304.273 625.742 305.414 625.914 306.305C626.086 307.18 626.336 307.945 626.664 308.602V309H619.844C619.516 308.312 619.266 307.453 619.094 306.422C618.938 305.375 618.859 304.328 618.859 303.281ZM619.75 293.555L619.797 297.375H616.023C615.133 297.375 614.359 297.477 613.703 297.68C613.047 297.883 612.508 298.172 612.086 298.547C611.664 298.906 611.352 299.328 611.148 299.812C610.961 300.297 610.867 300.828 610.867 301.406C610.867 301.984 611 302.508 611.266 302.977C611.531 303.43 611.914 303.789 612.414 304.055C612.914 304.305 613.5 304.43 614.172 304.43C615.188 304.43 616.07 304.227 616.82 303.82C617.57 303.414 618.148 302.914 618.555 302.32C618.977 301.727 619.195 301.164 619.211 300.633L620.992 303.492C620.742 304.133 620.398 304.797 619.961 305.484C619.539 306.172 619 306.82 618.344 307.43C617.688 308.023 616.898 308.516 615.977 308.906C615.055 309.281 613.961 309.469 612.695 309.469C611.086 309.469 609.625 309.148 608.312 308.508C607.016 307.852 605.984 306.953 605.219 305.812C604.469 304.656 604.094 303.344 604.094 301.875C604.094 300.547 604.344 299.367 604.844 298.336C605.344 297.305 606.078 296.438 607.047 295.734C608.031 295.016 609.258 294.477 610.727 294.117C612.195 293.742 613.898 293.555 615.836 293.555H619.75ZM648.227 293.883V299.133H635.336V293.883H648.227ZM637.586 283.641V309H630.836V283.641H637.586ZM652.797 283.641V309H646.023V283.641H652.797ZM664.773 299.578L673.281 283.641H680.031V309H673.281V293.039L664.773 309H658.023V283.641H664.773V299.578ZM685.211 309V283.641H691.961V303.727H700.445V283.641H707.219V309H685.211ZM711.016 303.75L710.57 316.523H704.289V309H701.453V303.75H711.016ZM726.109 309.469C724.141 309.469 722.375 309.156 720.812 308.531C719.25 307.891 717.922 307.008 716.828 305.883C715.75 304.758 714.922 303.453 714.344 301.969C713.766 300.469 713.477 298.875 713.477 297.188V296.25C713.477 294.328 713.75 292.57 714.297 290.977C714.844 289.383 715.625 288 716.641 286.828C717.672 285.656 718.922 284.758 720.391 284.133C721.859 283.492 723.516 283.172 725.359 283.172C727.156 283.172 728.75 283.469 730.141 284.062C731.531 284.656 732.695 285.5 733.633 286.594C734.586 287.688 735.305 289 735.789 290.531C736.273 292.047 736.516 293.734 736.516 295.594V298.406H716.359V293.906H729.883V293.391C729.883 292.453 729.711 291.617 729.367 290.883C729.039 290.133 728.539 289.539 727.867 289.102C727.195 288.664 726.336 288.445 725.289 288.445C724.398 288.445 723.633 288.641 722.992 289.031C722.352 289.422 721.828 289.969 721.422 290.672C721.031 291.375 720.734 292.203 720.531 293.156C720.344 294.094 720.25 295.125 720.25 296.25V297.188C720.25 298.203 720.391 299.141 720.672 300C720.969 300.859 721.383 301.602 721.914 302.227C722.461 302.852 723.117 303.336 723.883 303.68C724.664 304.023 725.547 304.195 726.531 304.195C727.75 304.195 728.883 303.961 729.93 303.492C730.992 303.008 731.906 302.281 732.672 301.312L735.953 304.875C735.422 305.641 734.695 306.375 733.773 307.078C732.867 307.781 731.773 308.359 730.492 308.812C729.211 309.25 727.75 309.469 726.109 309.469Z" fill="#0EAD69"/>
</svg>
