<svg width="1471" height="728" viewBox="0 0 1471 728" fill="none" xmlns="http://www.w3.org/2000/svg">
<path fill-rule="evenodd" clip-rule="evenodd" d="M419.558 63.136C412.453 62.1061 405.892 67.036 404.904 74.1475L396.15 137.185C395.875 139.163 394.185 140.635 392.188 140.635H354C346.82 140.635 341 146.456 341 153.635V163.635C341 170.815 346.82 176.635 354 176.635H386.077C388.505 176.635 390.373 178.781 390.039 181.185L386.984 203.185C386.71 205.163 385.019 206.635 383.022 206.635H354C346.82 206.635 341 212.456 341 219.635V229.635C341 236.815 346.82 242.635 354 242.635H376.912C379.34 242.635 381.208 244.781 380.874 247.185L373.081 303.302C372.093 310.413 377.052 317.013 384.158 318.043L393.613 319.414C400.718 320.444 407.279 315.514 408.267 308.403L416.921 246.085C417.196 244.107 418.886 242.635 420.883 242.635H459.67C462.098 242.635 463.966 244.781 463.632 247.185L455.788 303.666C454.801 310.778 459.76 317.378 466.866 318.408L476.321 319.778C483.426 320.808 489.987 315.878 490.974 308.767L499.679 246.085C499.954 244.107 501.645 242.635 503.641 242.635H543C550.18 242.635 556 236.815 556 229.635V219.635C556 212.456 550.18 206.635 543 206.635H509.752C507.324 206.635 505.456 204.49 505.79 202.085L508.845 180.085C509.12 178.107 510.81 176.635 512.807 176.635H543C550.18 176.635 556 170.815 556 163.635V153.635C556 146.456 550.18 140.635 543 140.635H518.918C516.49 140.635 514.622 138.49 514.956 136.085L522.798 79.6122C523.786 72.5007 518.826 65.9008 511.721 64.8708L502.266 63.5002C495.16 62.4702 488.6 67.4002 487.612 74.5117L478.908 137.185C478.634 139.163 476.943 140.635 474.946 140.635H436.159C433.731 140.635 431.863 138.49 432.197 136.085L440.09 79.248C441.078 72.1366 436.119 65.5366 429.013 64.5066L419.558 63.136ZM465.781 206.635C467.777 206.635 469.468 205.163 469.743 203.185L472.798 181.185C473.132 178.781 471.264 176.635 468.836 176.635H430.049C428.052 176.635 426.361 178.107 426.087 180.085L423.031 202.085C422.697 204.49 424.565 206.635 426.993 206.635H465.781Z" fill="url(#paint0_linear_381_2)"/>
<path d="M573.472 248.256V226.523L669.352 74.8182H685.119V108.483H674.466L602.023 223.114V224.818H731.142V248.256H573.472ZM676.17 293V241.651V231.53V74.8182H701.312V293H676.17ZM822.73 295.983C806.679 295.983 793.007 291.615 781.715 282.879C770.422 274.072 761.793 261.324 755.827 244.634C749.861 227.872 746.878 207.631 746.878 183.909C746.878 160.33 749.861 140.195 755.827 123.504C761.864 106.743 770.529 93.9588 781.821 85.152C793.185 76.2741 806.821 71.8352 822.73 71.8352C838.64 71.8352 852.24 76.2741 863.533 85.152C874.897 93.9588 883.561 106.743 889.527 123.504C895.564 140.195 898.583 160.33 898.583 183.909C898.583 207.631 895.6 227.872 889.634 244.634C883.668 261.324 875.039 274.072 863.746 282.879C852.453 291.615 838.782 295.983 822.73 295.983ZM822.73 272.545C838.64 272.545 850.998 264.875 859.804 249.534C868.611 234.193 873.015 212.318 873.015 183.909C873.015 165.017 870.99 148.93 866.942 135.649C862.965 122.368 857.212 112.247 849.684 105.287C842.226 98.3267 833.242 94.8466 822.73 94.8466C806.963 94.8466 794.641 102.624 785.763 118.178C776.885 133.661 772.446 155.571 772.446 183.909C772.446 202.801 774.435 218.852 778.412 232.062C782.39 245.273 788.107 255.322 795.564 262.212C803.093 269.101 812.148 272.545 822.73 272.545ZM914.452 248.256V226.523L1010.33 74.8182H1026.1V108.483H1015.45L943.003 223.114V224.818H1072.12V248.256H914.452ZM1017.15 293V241.651V231.53V74.8182H1042.29V293H1017.15Z" fill="url(#paint1_linear_381_2)"/>
<path d="M327.062 437.818V459.125H227.347V437.818H327.062ZM402.271 688.812L331.959 427.591H354.97L425.283 688.812H402.271ZM548.512 656V679.438H412.148V656H548.512ZM560.679 563.955C560.679 537.108 564.159 512.428 571.119 489.913C578.151 467.328 588.165 446.554 601.162 427.591H623.321C618.207 434.622 613.413 443.287 608.939 453.585C604.536 463.812 600.665 475.07 597.327 487.357C593.989 499.572 591.361 512.214 589.443 525.283C587.597 538.351 586.673 551.241 586.673 563.955C586.673 580.858 588.307 598.01 591.574 615.411C594.841 632.811 599.244 648.969 604.784 663.884C610.324 678.798 616.503 690.943 623.321 700.318H601.162C588.165 681.355 578.151 660.616 571.119 638.102C564.159 615.517 560.679 590.801 560.679 563.955ZM754.41 430.7L731.61 438.2C739.11 454.1 755.91 500.3 761.01 517.4L784.41 509.3C779.31 492.5 761.01 444.8 754.41 430.7ZM887.91 449.9L860.01 441.8C854.31 487.1 835.71 535.1 812.01 565.4C781.71 603.8 737.01 632.6 694.41 645.2L714.81 665.9C757.41 650.9 801.51 620 832.41 579.2C857.31 546.8 873.21 504.2 882.51 466.7C883.71 462.2 885.81 454.7 887.91 449.9ZM670.71 448.7L647.31 457.1C654.21 470.3 674.91 521 680.61 539.6L704.61 530.9C697.41 511.1 678.81 465.5 670.71 448.7ZM975.115 563.955C975.115 590.801 971.599 615.517 964.568 638.102C957.608 660.616 947.629 681.355 934.632 700.318H912.473C917.586 693.287 922.345 684.622 926.748 674.324C931.223 664.097 935.129 652.875 938.467 640.659C941.805 628.372 944.397 615.695 946.244 602.626C948.162 589.487 949.12 576.597 949.12 563.955C949.12 547.051 947.487 529.899 944.22 512.499C940.953 495.098 936.549 478.94 931.01 464.026C925.47 449.111 919.291 436.966 912.473 427.591H934.632C947.629 446.554 957.608 467.328 964.568 489.913C971.599 512.428 975.115 537.108 975.115 563.955ZM1123.54 656V679.438H987.175V656H1123.54ZM1203.89 427.591L1133.58 688.812H1110.56L1180.88 427.591H1203.89ZM1308.37 437.818V459.125H1208.65V437.818H1308.37Z" fill="#0EAD69"/>
<path d="M273.062 374.359L291.109 328.75H301.516L277.375 385.609C276.688 387.203 275.922 388.75 275.078 390.25C274.234 391.719 273.203 393.031 271.984 394.188C270.766 395.344 269.25 396.266 267.438 396.953C265.656 397.641 263.438 397.984 260.781 397.984C260.031 397.984 259.141 397.938 258.109 397.844C257.078 397.781 256.406 397.703 256.094 397.609L256.375 390.391C256.719 390.453 257.391 390.516 258.391 390.578C259.391 390.609 260.125 390.625 260.594 390.625C262.375 390.625 263.781 390.266 264.812 389.547C265.844 388.828 266.672 387.922 267.297 386.828C267.953 385.703 268.547 384.562 269.078 383.406L273.062 374.359ZM257.734 328.75L276.719 371.266L278.969 379.656L271.375 380.219L247.609 328.75H257.734ZM333.76 346.281V353.453H308.119V346.281H333.76ZM309.385 346.281V397H300.713V346.281H309.385ZM341.448 346.281V397H332.729V346.281H341.448ZM369.426 390.812C371.489 390.812 373.395 390.391 375.145 389.547C376.895 388.703 378.333 387.547 379.458 386.078C380.583 384.578 381.223 382.875 381.379 380.969H389.629C389.473 383.969 388.458 386.766 386.583 389.359C384.739 391.922 382.317 394 379.317 395.594C376.317 397.156 373.02 397.938 369.426 397.938C365.614 397.938 362.286 397.266 359.442 395.922C356.629 394.578 354.286 392.734 352.411 390.391C350.567 388.047 349.176 385.359 348.239 382.328C347.333 379.266 346.879 376.031 346.879 372.625V370.656C346.879 367.25 347.333 364.031 348.239 361C349.176 357.938 350.567 355.234 352.411 352.891C354.286 350.547 356.629 348.703 359.442 347.359C362.286 346.016 365.614 345.344 369.426 345.344C373.395 345.344 376.864 346.156 379.833 347.781C382.801 349.375 385.129 351.562 386.817 354.344C388.536 357.094 389.473 360.219 389.629 363.719H381.379C381.223 361.625 380.629 359.734 379.598 358.047C378.598 356.359 377.223 355.016 375.473 354.016C373.754 352.984 371.739 352.469 369.426 352.469C366.77 352.469 364.536 353 362.723 354.062C360.942 355.094 359.52 356.5 358.458 358.281C357.426 360.031 356.676 361.984 356.208 364.141C355.77 366.266 355.551 368.438 355.551 370.656V372.625C355.551 374.844 355.77 377.031 356.208 379.188C356.645 381.344 357.379 383.297 358.411 385.047C359.473 386.797 360.895 388.203 362.676 389.266C364.489 390.297 366.739 390.812 369.426 390.812ZM403.452 328.75L402.842 377.734H395.014L394.358 328.75H403.452ZM394.077 392.641C394.077 391.234 394.499 390.047 395.342 389.078C396.217 388.109 397.499 387.625 399.186 387.625C400.842 387.625 402.108 388.109 402.983 389.078C403.889 390.047 404.342 391.234 404.342 392.641C404.342 393.984 403.889 395.141 402.983 396.109C402.108 397.078 400.842 397.562 399.186 397.562C397.499 397.562 396.217 397.078 395.342 396.109C394.499 395.141 394.077 393.984 394.077 392.641ZM471.738 375.297H480.738C480.269 379.609 479.034 383.469 477.034 386.875C475.034 390.281 472.206 392.984 468.55 394.984C464.894 396.953 460.331 397.938 454.863 397.938C450.863 397.938 447.222 397.188 443.941 395.688C440.691 394.188 437.894 392.062 435.55 389.312C433.206 386.531 431.394 383.203 430.113 379.328C428.863 375.422 428.238 371.078 428.238 366.297V359.5C428.238 354.719 428.863 350.391 430.113 346.516C431.394 342.609 433.222 339.266 435.597 336.484C438.003 333.703 440.894 331.562 444.269 330.062C447.644 328.562 451.441 327.812 455.659 327.812C460.816 327.812 465.175 328.781 468.738 330.719C472.3 332.656 475.066 335.344 477.034 338.781C479.034 342.188 480.269 346.141 480.738 350.641H471.738C471.3 347.453 470.488 344.719 469.3 342.438C468.113 340.125 466.425 338.344 464.238 337.094C462.05 335.844 459.191 335.219 455.659 335.219C452.628 335.219 449.956 335.797 447.644 336.953C445.363 338.109 443.441 339.75 441.878 341.875C440.347 344 439.191 346.547 438.409 349.516C437.628 352.484 437.238 355.781 437.238 359.406V366.297C437.238 369.641 437.581 372.781 438.269 375.719C438.988 378.656 440.066 381.234 441.503 383.453C442.941 385.672 444.769 387.422 446.988 388.703C449.206 389.953 451.831 390.578 454.863 390.578C458.706 390.578 461.769 389.969 464.05 388.75C466.331 387.531 468.05 385.781 469.206 383.5C470.394 381.219 471.238 378.484 471.738 375.297ZM506.185 346.281V397H497.466V346.281H506.185ZM523.201 346.281V353.312H480.779V346.281H523.201ZM534.164 356.031V416.5H525.445V346.281H533.414L534.164 356.031ZM568.336 371.219V372.203C568.336 375.891 567.898 379.312 567.023 382.469C566.148 385.594 564.867 388.312 563.179 390.625C561.523 392.938 559.476 394.734 557.039 396.016C554.601 397.297 551.804 397.938 548.648 397.938C545.429 397.938 542.586 397.406 540.117 396.344C537.648 395.281 535.554 393.734 533.836 391.703C532.117 389.672 530.742 387.234 529.711 384.391C528.711 381.547 528.023 378.344 527.648 374.781V369.531C528.023 365.781 528.726 362.422 529.758 359.453C530.789 356.484 532.148 353.953 533.836 351.859C535.554 349.734 537.633 348.125 540.07 347.031C542.508 345.906 545.32 345.344 548.508 345.344C551.695 345.344 554.523 345.969 556.992 347.219C559.461 348.438 561.539 350.188 563.226 352.469C564.914 354.75 566.179 357.484 567.023 360.672C567.898 363.828 568.336 367.344 568.336 371.219ZM559.617 372.203V371.219C559.617 368.688 559.351 366.312 558.82 364.094C558.289 361.844 557.461 359.875 556.336 358.188C555.242 356.469 553.836 355.125 552.117 354.156C550.398 353.156 548.351 352.656 545.976 352.656C543.789 352.656 541.883 353.031 540.258 353.781C538.664 354.531 537.304 355.547 536.179 356.828C535.054 358.078 534.133 359.516 533.414 361.141C532.726 362.734 532.211 364.391 531.867 366.109V378.25C532.492 380.438 533.367 382.5 534.492 384.438C535.617 386.344 537.117 387.891 538.992 389.078C540.867 390.234 543.226 390.812 546.07 390.812C548.414 390.812 550.429 390.328 552.117 389.359C553.836 388.359 555.242 387 556.336 385.281C557.461 383.562 558.289 381.594 558.82 379.375C559.351 377.125 559.617 374.734 559.617 372.203ZM603.064 388.328V362.219C603.064 360.219 602.658 358.484 601.846 357.016C601.064 355.516 599.877 354.359 598.283 353.547C596.689 352.734 594.721 352.328 592.377 352.328C590.189 352.328 588.268 352.703 586.611 353.453C584.986 354.203 583.705 355.188 582.768 356.406C581.861 357.625 581.408 358.938 581.408 360.344H572.736C572.736 358.531 573.205 356.734 574.143 354.953C575.08 353.172 576.424 351.562 578.174 350.125C579.955 348.656 582.08 347.5 584.549 346.656C587.049 345.781 589.83 345.344 592.893 345.344C596.58 345.344 599.83 345.969 602.643 347.219C605.486 348.469 607.705 350.359 609.299 352.891C610.924 355.391 611.736 358.531 611.736 362.312V385.938C611.736 387.625 611.877 389.422 612.158 391.328C612.471 393.234 612.924 394.875 613.518 396.25V397H604.471C604.033 396 603.689 394.672 603.439 393.016C603.189 391.328 603.064 389.766 603.064 388.328ZM604.564 366.25L604.658 372.344H595.893C593.424 372.344 591.221 372.547 589.283 372.953C587.346 373.328 585.721 373.906 584.408 374.688C583.096 375.469 582.096 376.453 581.408 377.641C580.721 378.797 580.377 380.156 580.377 381.719C580.377 383.312 580.736 384.766 581.455 386.078C582.174 387.391 583.252 388.438 584.689 389.219C586.158 389.969 587.955 390.344 590.08 390.344C592.736 390.344 595.08 389.781 597.111 388.656C599.143 387.531 600.752 386.156 601.939 384.531C603.158 382.906 603.814 381.328 603.908 379.797L607.611 383.969C607.393 385.281 606.799 386.734 605.83 388.328C604.861 389.922 603.564 391.453 601.939 392.922C600.346 394.359 598.439 395.562 596.221 396.531C594.033 397.469 591.564 397.938 588.814 397.938C585.377 397.938 582.361 397.266 579.768 395.922C577.205 394.578 575.205 392.781 573.768 390.531C572.361 388.25 571.658 385.703 571.658 382.891C571.658 380.172 572.189 377.781 573.252 375.719C574.314 373.625 575.846 371.891 577.846 370.516C579.846 369.109 582.252 368.047 585.064 367.328C587.877 366.609 591.018 366.25 594.486 366.25H604.564ZM653.543 368.266V375.297H626.731V368.266H653.543ZM628.559 346.281V397H619.887V346.281H628.559ZM660.574 346.281V397H651.856V346.281H660.574ZM677.678 383.266L701.069 346.281H709.788V397H701.069V360.016L677.678 397H669.053V346.281H677.678V383.266ZM718.219 397V346.281H726.891V389.875H750.235V346.281H758.954V397H718.219ZM764.954 389.875L764.11 412.047H756.376V397H749.766V389.875H764.954ZM798.042 388.328V362.219C798.042 360.219 797.636 358.484 796.823 357.016C796.042 355.516 794.854 354.359 793.261 353.547C791.667 352.734 789.698 352.328 787.354 352.328C785.167 352.328 783.245 352.703 781.589 353.453C779.964 354.203 778.682 355.188 777.745 356.406C776.839 357.625 776.386 358.938 776.386 360.344H767.714C767.714 358.531 768.182 356.734 769.12 354.953C770.057 353.172 771.401 351.562 773.151 350.125C774.932 348.656 777.057 347.5 779.526 346.656C782.026 345.781 784.807 345.344 787.87 345.344C791.557 345.344 794.807 345.969 797.62 347.219C800.464 348.469 802.682 350.359 804.276 352.891C805.901 355.391 806.714 358.531 806.714 362.312V385.938C806.714 387.625 806.854 389.422 807.136 391.328C807.448 393.234 807.901 394.875 808.495 396.25V397H799.448C799.011 396 798.667 394.672 798.417 393.016C798.167 391.328 798.042 389.766 798.042 388.328ZM799.542 366.25L799.636 372.344H790.87C788.401 372.344 786.198 372.547 784.261 372.953C782.323 373.328 780.698 373.906 779.386 374.688C778.073 375.469 777.073 376.453 776.386 377.641C775.698 378.797 775.354 380.156 775.354 381.719C775.354 383.312 775.714 384.766 776.432 386.078C777.151 387.391 778.229 388.438 779.667 389.219C781.136 389.969 782.932 390.344 785.057 390.344C787.714 390.344 790.057 389.781 792.089 388.656C794.12 387.531 795.729 386.156 796.917 384.531C798.136 382.906 798.792 381.328 798.886 379.797L802.589 383.969C802.37 385.281 801.776 386.734 800.807 388.328C799.839 389.922 798.542 391.453 796.917 392.922C795.323 394.359 793.417 395.562 791.198 396.531C789.011 397.469 786.542 397.938 783.792 397.938C780.354 397.938 777.339 397.266 774.745 395.922C772.182 394.578 770.182 392.781 768.745 390.531C767.339 388.25 766.636 385.703 766.636 382.891C766.636 380.172 767.167 377.781 768.229 375.719C769.292 373.625 770.823 371.891 772.823 370.516C774.823 369.109 777.229 368.047 780.042 367.328C782.854 366.609 785.995 366.25 789.464 366.25H799.542ZM866.093 368.266V375.297H839.281V368.266H866.093ZM841.109 346.281V397H832.437V346.281H841.109ZM873.124 346.281V397H864.406V346.281H873.124ZM901.9 397.938C898.369 397.938 895.166 397.344 892.291 396.156C889.447 394.938 886.994 393.234 884.931 391.047C882.9 388.859 881.338 386.266 880.244 383.266C879.15 380.266 878.603 376.984 878.603 373.422V371.453C878.603 367.328 879.213 363.656 880.431 360.438C881.65 357.188 883.306 354.438 885.4 352.188C887.494 349.938 889.869 348.234 892.525 347.078C895.181 345.922 897.931 345.344 900.775 345.344C904.4 345.344 907.525 345.969 910.15 347.219C912.806 348.469 914.978 350.219 916.666 352.469C918.353 354.688 919.603 357.312 920.416 360.344C921.228 363.344 921.634 366.625 921.634 370.188V374.078H883.759V367H912.963V366.344C912.838 364.094 912.369 361.906 911.556 359.781C910.775 357.656 909.525 355.906 907.806 354.531C906.088 353.156 903.744 352.469 900.775 352.469C898.806 352.469 896.994 352.891 895.338 353.734C893.681 354.547 892.259 355.766 891.072 357.391C889.884 359.016 888.963 361 888.306 363.344C887.65 365.688 887.322 368.391 887.322 371.453V373.422C887.322 375.828 887.65 378.094 888.306 380.219C888.994 382.312 889.978 384.156 891.259 385.75C892.572 387.344 894.15 388.594 895.994 389.5C897.869 390.406 899.994 390.859 902.369 390.859C905.431 390.859 908.025 390.234 910.15 388.984C912.275 387.734 914.134 386.062 915.728 383.969L920.978 388.141C919.884 389.797 918.494 391.375 916.806 392.875C915.119 394.375 913.041 395.594 910.572 396.531C908.134 397.469 905.244 397.938 901.9 397.938ZM977.498 368.266V375.297H950.686V368.266H977.498ZM952.514 346.281V397H943.842V346.281H952.514ZM984.529 346.281V397H975.811V346.281H984.529ZM1022.16 388.328V362.219C1022.16 360.219 1021.76 358.484 1020.95 357.016C1020.16 355.516 1018.98 354.359 1017.38 353.547C1015.79 352.734 1013.82 352.328 1011.48 352.328C1009.29 352.328 1007.37 352.703 1005.71 353.453C1004.09 354.203 1002.8 355.188 1001.87 356.406C1000.96 357.625 1000.51 358.938 1000.51 360.344H991.836C991.836 358.531 992.305 356.734 993.242 354.953C994.18 353.172 995.524 351.562 997.274 350.125C999.055 348.656 1001.18 347.5 1003.65 346.656C1006.15 345.781 1008.93 345.344 1011.99 345.344C1015.68 345.344 1018.93 345.969 1021.74 347.219C1024.59 348.469 1026.8 350.359 1028.4 352.891C1030.02 355.391 1030.84 358.531 1030.84 362.312V385.938C1030.84 387.625 1030.98 389.422 1031.26 391.328C1031.57 393.234 1032.02 394.875 1032.62 396.25V397H1023.57C1023.13 396 1022.79 394.672 1022.54 393.016C1022.29 391.328 1022.16 389.766 1022.16 388.328ZM1023.66 366.25L1023.76 372.344H1014.99C1012.52 372.344 1010.32 372.547 1008.38 372.953C1006.45 373.328 1004.82 373.906 1003.51 374.688C1002.2 375.469 1001.2 376.453 1000.51 377.641C999.821 378.797 999.477 380.156 999.477 381.719C999.477 383.312 999.836 384.766 1000.55 386.078C1001.27 387.391 1002.35 388.438 1003.79 389.219C1005.26 389.969 1007.05 390.344 1009.18 390.344C1011.84 390.344 1014.18 389.781 1016.21 388.656C1018.24 387.531 1019.85 386.156 1021.04 384.531C1022.26 382.906 1022.91 381.328 1023.01 379.797L1026.71 383.969C1026.49 385.281 1025.9 386.734 1024.93 388.328C1023.96 389.922 1022.66 391.453 1021.04 392.922C1019.45 394.359 1017.54 395.562 1015.32 396.531C1013.13 397.469 1010.66 397.938 1007.91 397.938C1004.48 397.938 1001.46 397.266 998.867 395.922C996.305 394.578 994.305 392.781 992.867 390.531C991.461 388.25 990.758 385.703 990.758 382.891C990.758 380.172 991.289 377.781 992.352 375.719C993.414 373.625 994.946 371.891 996.946 370.516C998.946 369.109 1001.35 368.047 1004.16 367.328C1006.98 366.609 1010.12 366.25 1013.59 366.25H1023.66ZM1047.61 383.266L1071 346.281H1079.72V397H1071V360.016L1047.61 397H1038.99V346.281H1047.61V383.266ZM1066.27 327.906H1073.3C1073.3 330.344 1072.74 332.516 1071.61 334.422C1070.49 336.297 1068.88 337.766 1066.78 338.828C1064.69 339.891 1062.21 340.422 1059.33 340.422C1054.99 340.422 1051.55 339.266 1049.02 336.953C1046.52 334.609 1045.27 331.594 1045.27 327.906H1052.3C1052.3 329.75 1052.83 331.375 1053.89 332.781C1054.96 334.188 1056.77 334.891 1059.33 334.891C1061.83 334.891 1063.61 334.188 1064.67 332.781C1065.74 331.375 1066.27 329.75 1066.27 327.906ZM1096.54 346.281H1105.22L1104.47 365.266C1104.28 370.078 1103.73 374.234 1102.83 377.734C1101.92 381.234 1100.76 384.219 1099.36 386.688C1097.95 389.125 1096.37 391.172 1094.62 392.828C1092.9 394.484 1091.12 395.875 1089.28 397H1084.97L1085.2 389.922L1086.98 389.875C1088.01 388.656 1089.01 387.406 1089.98 386.125C1090.95 384.812 1091.84 383.266 1092.65 381.484C1093.47 379.672 1094.14 377.469 1094.67 374.875C1095.23 372.25 1095.59 369.047 1095.75 365.266L1096.54 346.281ZM1098.7 346.281H1129.22V397H1120.54V354.297H1098.7V346.281ZM1083 389.875H1135.73V411.953H1127.06V397H1091.67V411.953H1082.95L1083 389.875ZM1160.15 397.938C1156.62 397.938 1153.41 397.344 1150.54 396.156C1147.69 394.938 1145.24 393.234 1143.18 391.047C1141.15 388.859 1139.59 386.266 1138.49 383.266C1137.4 380.266 1136.85 376.984 1136.85 373.422V371.453C1136.85 367.328 1137.46 363.656 1138.68 360.438C1139.9 357.188 1141.55 354.438 1143.65 352.188C1145.74 349.938 1148.12 348.234 1150.77 347.078C1153.43 345.922 1156.18 345.344 1159.02 345.344C1162.65 345.344 1165.77 345.969 1168.4 347.219C1171.05 348.469 1173.23 350.219 1174.91 352.469C1176.6 354.688 1177.85 357.312 1178.66 360.344C1179.48 363.344 1179.88 366.625 1179.88 370.188V374.078H1142.01V367H1171.21V366.344C1171.09 364.094 1170.62 361.906 1169.8 359.781C1169.02 357.656 1167.77 355.906 1166.05 354.531C1164.34 353.156 1161.99 352.469 1159.02 352.469C1157.05 352.469 1155.24 352.891 1153.59 353.734C1151.93 354.547 1150.51 355.766 1149.32 357.391C1148.13 359.016 1147.21 361 1146.55 363.344C1145.9 365.688 1145.57 368.391 1145.57 371.453V373.422C1145.57 375.828 1145.9 378.094 1146.55 380.219C1147.24 382.312 1148.23 384.156 1149.51 385.75C1150.82 387.344 1152.4 388.594 1154.24 389.5C1156.12 390.406 1158.24 390.859 1160.62 390.859C1163.68 390.859 1166.27 390.234 1168.4 388.984C1170.52 387.734 1172.38 386.062 1173.98 383.969L1179.23 388.141C1178.13 389.797 1176.74 391.375 1175.05 392.875C1173.37 394.375 1171.29 395.594 1168.82 396.531C1166.38 397.469 1163.49 397.938 1160.15 397.938ZM1218.17 368.266V375.297H1191.36V368.266H1218.17ZM1193.19 346.281V397H1184.52V346.281H1193.19ZM1225.2 346.281V397H1216.49V346.281H1225.2ZM1262.84 388.328V362.219C1262.84 360.219 1262.43 358.484 1261.62 357.016C1260.84 355.516 1259.65 354.359 1258.06 353.547C1256.46 352.734 1254.5 352.328 1252.15 352.328C1249.96 352.328 1248.04 352.703 1246.39 353.453C1244.76 354.203 1243.48 355.188 1242.54 356.406C1241.64 357.625 1241.18 358.938 1241.18 360.344H1232.51C1232.51 358.531 1232.98 356.734 1233.92 354.953C1234.85 353.172 1236.2 351.562 1237.95 350.125C1239.73 348.656 1241.85 347.5 1244.32 346.656C1246.82 345.781 1249.6 345.344 1252.67 345.344C1256.35 345.344 1259.6 345.969 1262.42 347.219C1265.26 348.469 1267.48 350.359 1269.07 352.891C1270.7 355.391 1271.51 358.531 1271.51 362.312V385.938C1271.51 387.625 1271.65 389.422 1271.93 391.328C1272.25 393.234 1272.7 394.875 1273.29 396.25V397H1264.25C1263.81 396 1263.46 394.672 1263.21 393.016C1262.96 391.328 1262.84 389.766 1262.84 388.328ZM1264.34 366.25L1264.43 372.344H1255.67C1253.2 372.344 1251 372.547 1249.06 372.953C1247.12 373.328 1245.5 373.906 1244.18 374.688C1242.87 375.469 1241.87 376.453 1241.18 377.641C1240.5 378.797 1240.15 380.156 1240.15 381.719C1240.15 383.312 1240.51 384.766 1241.23 386.078C1241.95 387.391 1243.03 388.438 1244.46 389.219C1245.93 389.969 1247.73 390.344 1249.85 390.344C1252.51 390.344 1254.85 389.781 1256.89 388.656C1258.92 387.531 1260.53 386.156 1261.71 384.531C1262.93 382.906 1263.59 381.328 1263.68 379.797L1267.39 383.969C1267.17 385.281 1266.57 386.734 1265.6 388.328C1264.64 389.922 1263.34 391.453 1261.71 392.922C1260.12 394.359 1258.21 395.562 1256 396.531C1253.81 397.469 1251.34 397.938 1248.59 397.938C1245.15 397.938 1242.14 397.266 1239.54 395.922C1236.98 394.578 1234.98 392.781 1233.54 390.531C1232.14 388.25 1231.43 385.703 1231.43 382.891C1231.43 380.172 1231.96 377.781 1233.03 375.719C1234.09 373.625 1235.62 371.891 1237.62 370.516C1239.62 369.109 1242.03 368.047 1244.84 367.328C1247.65 366.609 1250.79 366.25 1254.26 366.25H1264.34ZM1279.05 392.406C1279.05 390.938 1279.51 389.703 1280.41 388.703C1281.35 387.672 1282.69 387.156 1284.44 387.156C1286.19 387.156 1287.52 387.672 1288.43 388.703C1289.36 389.703 1289.83 390.938 1289.83 392.406C1289.83 393.844 1289.36 395.062 1288.43 396.062C1287.52 397.062 1286.19 397.562 1284.44 397.562C1282.69 397.562 1281.35 397.062 1280.41 396.062C1279.51 395.062 1279.05 393.844 1279.05 392.406Z" fill="#89023E"/>
<defs>
<linearGradient id="paint0_linear_381_2" x1="328" y1="238.524" x2="580" y2="238.524" gradientUnits="userSpaceOnUse">
<stop stop-color="#FE207C"/>
<stop offset="1" stop-color="#FEB95F"/>
</linearGradient>
<linearGradient id="paint1_linear_381_2" x1="1070.54" y1="138.58" x2="617.45" y2="43.8403" gradientUnits="userSpaceOnUse">
<stop stop-color="#FE207C"/>
<stop offset="1" stop-color="#FEB95F"/>
</linearGradient>
</defs>
</svg>
