<svg width="512" height="341" viewBox="0 0 512 341" fill="none" xmlns="http://www.w3.org/2000/svg">
<path d="M197.932 219.383C197.487 219.738 187.066 228.271 187.066 244.034V265.45C187.066 267.815 189.137 269.734 191.699 269.734C194.262 269.734 196.333 267.815 196.333 265.45V244.034C196.333 232.323 203.714 226.095 204.241 225.645L236.675 195.662C238.514 193.961 240.808 192.976 243.133 192.89C245.496 192.796 247.526 193.584 249.217 195.143C250.903 196.707 251.751 198.651 251.654 200.767C251.561 202.917 250.496 205.038 248.656 206.738L225.491 228.155C223.679 229.83 223.679 232.537 225.491 234.212C227.302 235.887 230.231 235.887 232.043 234.212L255.209 212.799C258.699 209.574 260.723 205.424 260.918 201.114C261.117 196.612 259.291 192.338 255.77 189.087C252.249 185.835 247.684 184.161 242.755 184.328C238.098 184.507 233.608 186.379 230.124 189.605L197.932 219.383Z" fill="#89023E"/>
<path d="M61.9668 265.45C63.1532 265.45 64.3391 265.031 65.2426 264.196C67.0545 262.521 67.0545 259.813 65.2426 258.139L27.9118 223.65C27.6013 223.397 20.2668 217.349 20.2668 205.484V141.234C20.2668 136.509 24.4227 132.667 29.5337 132.667C34.6441 132.667 38.8005 136.509 38.8005 141.234V175.145C38.8005 177.509 40.8714 179.428 43.4337 179.428C45.996 179.428 48.0668 177.509 48.0668 175.145V141.234C48.0668 131.785 39.7545 124.101 29.5337 124.101C19.3123 124.1 11 131.785 11 141.233V205.483C11 221.477 21.4668 229.826 21.6243 229.929L58.6911 264.196C59.5946 265.031 60.7805 265.45 61.9668 265.45Z" fill="#89023E"/>
<path d="M39.0829 201.114C39.2772 205.424 41.302 209.574 44.7911 212.795L67.9579 234.212C69.7698 235.887 72.6981 235.887 74.5094 234.212C76.3208 232.537 76.3208 229.83 74.5094 228.155L51.3426 206.734C49.503 205.038 48.4377 202.918 48.3448 200.768C48.2476 198.652 49.0952 196.707 50.7822 195.144C52.4736 193.585 54.5168 192.797 56.8656 192.891C59.1917 192.977 61.4852 193.962 63.3242 195.662L95.9751 225.834C96.2857 226.096 103.666 232.323 103.666 244.034V265.45C103.666 267.815 105.737 269.734 108.299 269.734C110.862 269.734 112.933 267.815 112.933 265.45V244.034C112.933 228.271 102.512 219.738 102.308 219.588L69.8757 189.605C66.3915 186.38 61.9017 184.508 57.2452 184.328C52.2965 184.169 47.747 185.836 44.2302 189.087C40.7091 192.338 38.8836 196.613 39.0829 201.114Z" fill="#89023E"/>
<path d="M150 102.683C155.11 102.683 159.267 106.525 159.267 111.25C159.267 113.614 161.338 115.533 163.9 115.533C166.462 115.533 168.533 113.614 168.533 111.25C168.533 103.292 162.607 96.6398 154.633 94.7248V94.1164C154.633 91.7522 152.562 89.8333 150 89.8333C147.438 89.8333 145.367 91.7522 145.367 94.1164V94.7248C137.393 96.6392 131.467 103.292 131.467 111.25C131.467 120.699 139.779 128.383 150 128.383C155.11 128.383 159.267 132.225 159.267 136.95C159.267 141.675 155.111 145.517 150 145.517C144.89 145.517 140.733 141.675 140.733 136.95C140.733 134.586 138.662 132.667 136.1 132.667C133.538 132.667 131.467 134.586 131.467 136.95C131.467 144.909 137.393 151.561 145.367 153.476V154.084C145.367 156.448 147.438 158.367 150 158.367C152.562 158.367 154.633 156.448 154.633 154.084V153.476C162.607 151.561 168.533 144.909 168.533 136.95C168.533 127.501 160.221 119.817 150 119.817C144.89 119.817 140.733 115.975 140.733 111.25C140.733 106.526 144.89 102.683 150 102.683Z" fill="#89023E"/>
<path d="M117.567 278.3H43.4332C40.8709 278.3 38.8 280.219 38.8 282.584V299.717C38.8 302.081 40.8709 304 43.4332 304C45.9955 304 48.0664 302.081 48.0664 299.717V286.867H112.933V299.717C112.933 302.081 115.004 304 117.566 304C120.129 304 122.2 302.081 122.2 299.717V282.584C122.2 280.219 120.129 278.3 117.567 278.3Z" fill="#89023E"/>
<path d="M256.567 278.3H182.433C179.871 278.3 177.8 280.219 177.8 282.584V299.717C177.8 302.081 179.871 304 182.433 304C184.995 304 187.066 302.081 187.066 299.717V286.867H251.933V299.717C251.933 302.081 254.004 304 256.566 304C259.129 304 261.2 302.081 261.2 299.717V282.584C261.2 280.219 259.129 278.3 256.567 278.3Z" fill="#89023E"/>
<path d="M150 64.1332C114.231 64.1332 85.1331 91.0325 85.1331 124.1C85.1331 157.168 114.231 184.067 150 184.067C185.769 184.067 214.867 157.167 214.867 124.1C214.867 91.033 185.769 64.1332 150 64.1332ZM150 175.5C119.341 175.5 94.3999 152.443 94.3999 124.1C94.3999 95.7574 119.341 72.7001 150 72.7001C180.659 72.7001 205.6 95.7574 205.6 124.1C205.6 152.443 180.659 175.5 150 175.5Z" fill="#89023E"/>
<path d="M270.467 124.1C260.246 124.1 251.934 131.785 251.934 141.233V175.144C251.934 177.509 254.005 179.428 256.567 179.428C259.129 179.428 261.2 177.509 261.2 175.144V141.233C261.2 136.509 265.356 132.667 270.467 132.667C275.578 132.667 279.734 136.508 279.734 141.233V205.483C279.734 217.348 272.399 223.396 271.825 223.872L234.758 258.139C232.946 259.814 232.946 262.521 234.758 264.196C235.661 265.031 236.847 265.45 238.033 265.45C239.22 265.45 240.406 265.031 241.309 264.196L278.089 230.173C278.533 229.826 289 221.478 289 205.484V141.234C289 131.785 280.688 124.1 270.467 124.1Z" fill="#89023E"/>
<path d="M233.4 124.1C233.4 81.5882 195.986 47 150 47C104.014 47 66.6 81.5882 66.6 124.1C66.6 166.612 104.014 201.2 150 201.2C195.986 201.2 233.4 166.612 233.4 124.1ZM150 192.633C109.125 192.633 75.8668 161.888 75.8668 124.1C75.8668 86.3126 109.125 55.5669 150 55.5669C190.875 55.5669 224.133 86.3126 224.133 124.1C224.133 161.888 190.875 192.633 150 192.633Z" fill="#89023E"/>
<path d="M405.026 121H331.974C328.68 121 326 123.102 326 125.684V126.554H411V125.684C411 123.102 408.32 121 405.026 121Z" fill="black"/>
<path d="M360 133.218C360.782 133.218 361.417 132.721 361.417 132.108C361.417 131.494 360.782 130.997 360 130.997C359.218 130.997 358.583 131.494 358.583 132.108C358.583 132.721 359.218 133.218 360 133.218Z" fill="black"/>
<path d="M364.25 129.886C365.032 129.886 365.667 129.389 365.667 128.775C365.667 128.162 365.032 127.665 364.25 127.665C363.468 127.665 362.833 128.162 362.833 128.775C362.833 129.389 363.468 129.886 364.25 129.886Z" fill="black"/>
<path d="M364.25 136.551C365.032 136.551 365.667 136.053 365.667 135.44C365.667 134.826 365.032 134.329 364.25 134.329C363.468 134.329 362.833 134.826 362.833 135.44C362.833 136.053 363.468 136.551 364.25 136.551Z" fill="black"/>
<path d="M368.5 133.218C369.282 133.218 369.917 132.721 369.917 132.108C369.917 131.494 369.282 130.997 368.5 130.997C367.718 130.997 367.083 131.494 367.083 132.108C367.083 132.721 367.718 133.218 368.5 133.218Z" fill="black"/>
<path d="M351.5 133.218C352.282 133.218 352.917 132.721 352.917 132.108C352.917 131.494 352.282 130.997 351.5 130.997C350.718 130.997 350.083 131.494 350.083 132.108C350.083 132.721 350.718 133.218 351.5 133.218Z" fill="black"/>
<path d="M355.75 129.886C356.532 129.886 357.167 129.389 357.167 128.775C357.167 128.162 356.532 127.665 355.75 127.665C354.968 127.665 354.333 128.162 354.333 128.775C354.333 129.389 354.968 129.886 355.75 129.886Z" fill="black"/>
<path d="M355.75 136.551C356.532 136.551 357.167 136.053 357.167 135.44C357.167 134.826 356.532 134.329 355.75 134.329C354.968 134.329 354.333 134.826 354.333 135.44C354.333 136.053 354.968 136.551 355.75 136.551Z" fill="black"/>
<path d="M330.25 129.886C331.032 129.886 331.667 129.389 331.667 128.775C331.667 128.162 331.032 127.665 330.25 127.665C329.468 127.665 328.833 128.162 328.833 128.775C328.833 129.389 329.468 129.886 330.25 129.886Z" fill="black"/>
<path d="M330.25 136.551C331.032 136.551 331.667 136.053 331.667 135.44C331.667 134.826 331.032 134.329 330.25 134.329C329.468 134.329 328.833 134.826 328.833 135.44C328.833 136.053 329.468 136.551 330.25 136.551Z" fill="black"/>
<path d="M334.5 133.218C335.282 133.218 335.917 132.721 335.917 132.108C335.917 131.494 335.282 130.997 334.5 130.997C333.718 130.997 333.083 131.494 333.083 132.108C333.083 132.721 333.718 133.218 334.5 133.218Z" fill="black"/>
<path d="M343 133.218C343.782 133.218 344.417 132.721 344.417 132.108C344.417 131.494 343.782 130.997 343 130.997C342.218 130.997 341.583 131.494 341.583 132.108C341.583 132.721 342.218 133.218 343 133.218Z" fill="black"/>
<path d="M338.75 129.886C339.532 129.886 340.167 129.389 340.167 128.775C340.167 128.162 339.532 127.665 338.75 127.665C337.968 127.665 337.333 128.162 337.333 128.775C337.333 129.389 337.968 129.886 338.75 129.886Z" fill="black"/>
<path d="M347.25 129.886C348.032 129.886 348.667 129.389 348.667 128.775C348.667 128.162 348.032 127.665 347.25 127.665C346.468 127.665 345.833 128.162 345.833 128.775C345.833 129.389 346.468 129.886 347.25 129.886Z" fill="black"/>
<path d="M338.75 136.551C339.532 136.551 340.167 136.053 340.167 135.44C340.167 134.826 339.532 134.329 338.75 134.329C337.968 134.329 337.333 134.826 337.333 135.44C337.333 136.053 337.968 136.551 338.75 136.551Z" fill="black"/>
<path d="M347.25 136.551C348.032 136.551 348.667 136.053 348.667 135.44C348.667 134.826 348.032 134.329 347.25 134.329C346.468 134.329 345.833 134.826 345.833 135.44C345.833 136.053 346.468 136.551 347.25 136.551Z" fill="black"/>
<path d="M402.5 133.218C403.282 133.218 403.917 132.721 403.917 132.108C403.917 131.494 403.282 130.997 402.5 130.997C401.718 130.997 401.083 131.494 401.083 132.108C401.083 132.721 401.718 133.218 402.5 133.218Z" fill="black"/>
<path d="M406.75 129.886C407.532 129.886 408.167 129.389 408.167 128.775C408.167 128.162 407.532 127.665 406.75 127.665C405.968 127.665 405.333 128.162 405.333 128.775C405.333 129.389 405.968 129.886 406.75 129.886Z" fill="black"/>
<path d="M406.75 136.551C407.532 136.551 408.167 136.053 408.167 135.44C408.167 134.826 407.532 134.329 406.75 134.329C405.968 134.329 405.333 134.826 405.333 135.44C405.333 136.053 405.968 136.551 406.75 136.551Z" fill="black"/>
<path d="M394 133.218C394.782 133.218 395.417 132.721 395.417 132.108C395.417 131.494 394.782 130.997 394 130.997C393.218 130.997 392.583 131.494 392.583 132.108C392.583 132.721 393.218 133.218 394 133.218Z" fill="black"/>
<path d="M398.25 129.886C399.032 129.886 399.667 129.389 399.667 128.775C399.667 128.162 399.032 127.665 398.25 127.665C397.468 127.665 396.833 128.162 396.833 128.775C396.833 129.389 397.468 129.886 398.25 129.886Z" fill="black"/>
<path d="M398.25 136.551C399.032 136.551 399.667 136.053 399.667 135.44C399.667 134.826 399.032 134.329 398.25 134.329C397.468 134.329 396.833 134.826 396.833 135.44C396.833 136.053 397.468 136.551 398.25 136.551Z" fill="black"/>
<path d="M372.75 129.886C373.532 129.886 374.167 129.389 374.167 128.775C374.167 128.162 373.532 127.665 372.75 127.665C371.968 127.665 371.333 128.162 371.333 128.775C371.333 129.389 371.968 129.886 372.75 129.886Z" fill="black"/>
<path d="M372.75 136.551C373.532 136.551 374.167 136.053 374.167 135.44C374.167 134.826 373.532 134.329 372.75 134.329C371.968 134.329 371.333 134.826 371.333 135.44C371.333 136.053 371.968 136.551 372.75 136.551Z" fill="black"/>
<path d="M377 133.218C377.782 133.218 378.417 132.721 378.417 132.108C378.417 131.494 377.782 130.997 377 130.997C376.218 130.997 375.583 131.494 375.583 132.108C375.583 132.721 376.218 133.218 377 133.218Z" fill="black"/>
<path d="M385.5 133.218C386.282 133.218 386.917 132.721 386.917 132.108C386.917 131.494 386.282 130.997 385.5 130.997C384.718 130.997 384.083 131.494 384.083 132.108C384.083 132.721 384.718 133.218 385.5 133.218Z" fill="black"/>
<path d="M381.25 129.886C382.032 129.886 382.667 129.389 382.667 128.775C382.667 128.162 382.032 127.665 381.25 127.665C380.468 127.665 379.833 128.162 379.833 128.775C379.833 129.389 380.468 129.886 381.25 129.886Z" fill="black"/>
<path d="M389.75 129.886C390.532 129.886 391.167 129.389 391.167 128.775C391.167 128.162 390.532 127.665 389.75 127.665C388.968 127.665 388.333 128.162 388.333 128.775C388.333 129.389 388.968 129.886 389.75 129.886Z" fill="black"/>
<path d="M381.25 136.551C382.032 136.551 382.667 136.053 382.667 135.44C382.667 134.826 382.032 134.329 381.25 134.329C380.468 134.329 379.833 134.826 379.833 135.44C379.833 136.053 380.468 136.551 381.25 136.551Z" fill="black"/>
<path d="M389.75 136.551C390.532 136.551 391.167 136.053 391.167 135.44C391.167 134.826 390.532 134.329 389.75 134.329C388.968 134.329 388.333 134.826 388.333 135.44C388.333 136.053 388.968 136.551 389.75 136.551Z" fill="black"/>
<path d="M399.667 152.101H379.833V160.987H399.667V152.101Z" fill="black"/>
<path d="M326 165.19C326 167.772 328.68 169.874 331.974 169.874H405.026C408.32 169.874 411 167.772 411 165.19V137.661H326V165.19ZM345.833 149.88H343C342.217 149.88 341.583 149.382 341.583 148.769C341.583 148.156 342.217 147.658 343 147.658H345.833C346.617 147.658 347.25 148.156 347.25 148.769C347.25 149.382 346.617 149.88 345.833 149.88ZM361.417 149.88H358.583C357.8 149.88 357.167 149.382 357.167 148.769C357.167 148.156 357.8 147.658 358.583 147.658H361.417C362.2 147.658 362.833 148.156 362.833 148.769C362.833 149.382 362.2 149.88 361.417 149.88ZM368.089 149.558C367.82 149.758 367.452 149.88 367.083 149.88C366.699 149.88 366.345 149.758 366.078 149.558C365.821 149.347 365.667 149.058 365.667 148.769C365.667 148.48 365.821 148.192 366.078 147.98C366.602 147.569 367.565 147.569 368.089 147.98C368.344 148.192 368.5 148.48 368.5 148.769C368.5 149.058 368.344 149.347 368.089 149.558ZM377 149.88H402.5V163.209H377V149.88ZM354.333 142.105H367.083C367.867 142.105 368.5 142.602 368.5 143.215C368.5 143.828 367.867 144.326 367.083 144.326H354.333C353.55 144.326 352.917 143.828 352.917 143.215C352.917 142.602 353.55 142.105 354.333 142.105ZM351.5 147.658H352.917C353.7 147.658 354.333 148.156 354.333 148.769C354.333 149.382 353.7 149.88 352.917 149.88H351.5C350.717 149.88 350.083 149.382 350.083 148.769C350.083 148.156 350.717 147.658 351.5 147.658ZM335.917 142.105H348.667C349.45 142.105 350.083 142.602 350.083 143.215C350.083 143.828 349.45 144.326 348.667 144.326H335.917C335.133 144.326 334.5 143.828 334.5 143.215C334.5 142.602 335.133 142.105 335.917 142.105ZM335.917 147.658H337.333C338.117 147.658 338.75 148.156 338.75 148.769C338.75 149.382 338.117 149.88 337.333 149.88H335.917C335.133 149.88 334.5 149.382 334.5 148.769C334.5 148.156 335.133 147.658 335.917 147.658Z" fill="black"/>
<path d="M402.847 222.036L405.434 222.036L405.434 227.284L407.303 227.284L410.658 222.036L413.486 222.036L409.46 228.195L409.46 228.238L413.726 234.96L410.802 234.96L407.351 229.321L405.483 229.321L405.483 234.96L402.894 234.96L402.894 222.035L402.847 222.035L402.847 222.036ZM419.524 225.463C422.638 225.463 425.179 227.501 425.179 230.32C425.179 233.183 422.687 235.178 419.572 235.178C416.456 235.178 413.964 233.183 413.964 230.32C413.917 227.458 416.408 225.463 419.524 225.463ZM427.191 225.679L429.635 225.679L429.635 232.966L432.847 232.966L432.847 225.68L435.29 225.68L435.29 232.966L438.501 232.966L438.501 225.68L440.945 225.68L440.945 234.96L427.287 234.96L427.287 225.679L427.191 225.679ZM448.183 225.463C451.105 225.463 452.735 227.414 452.735 229.844C452.727 230.149 452.695 230.453 452.639 230.754L445.594 230.754C445.738 232.358 447.128 233.226 448.662 233.226C449.715 233.226 450.77 232.792 451.585 232.229L452.592 233.877C451.538 234.7 449.956 235.221 448.471 235.221C445.067 235.221 442.959 233.009 442.959 230.363C442.959 227.458 445.115 225.463 448.183 225.463L448.183 225.463ZM453.932 233.009C455.179 232.835 456.089 231.882 456.089 228.585L456.089 225.68L463.566 225.68L463.566 234.96L461.025 234.96L461.025 227.543L458.534 227.543L458.534 228.584C458.534 232.617 457.336 234.96 453.932 235.046L453.932 233.008L453.932 233.009ZM470.85 225.463C473.773 225.463 475.402 227.414 475.402 229.844C475.394 230.149 475.362 230.453 475.307 230.754L468.262 230.754C468.406 232.358 469.796 233.226 471.33 233.226C472.383 233.226 473.438 232.792 474.252 232.229L475.26 233.877C474.205 234.7 472.623 235.221 471.138 235.221C467.736 235.221 465.626 233.009 465.626 230.363C465.626 227.458 467.784 225.463 470.851 225.463L470.85 225.463ZM477.512 225.679L480.051 225.679L480.051 229.236L481.298 229.236L483.79 225.68L486.617 225.68L483.358 230.103L483.358 230.147L487 234.96L484.03 234.96L481.346 231.188L480.005 231.188L480.005 234.96L477.462 234.96L477.462 225.679L477.51 225.679L477.512 225.679ZM419.524 233.183C421.202 233.183 422.591 232.012 422.591 230.277C422.591 228.585 421.202 227.37 419.523 227.37C417.847 227.37 416.506 228.543 416.506 230.277C416.506 232.012 417.846 233.183 419.524 233.183L419.524 233.183ZM450.148 229.15C450.148 227.935 449.236 227.198 448.086 227.198C446.793 227.198 445.834 227.978 445.594 229.149L450.148 229.15ZM472.815 229.15C472.815 227.935 471.905 227.198 470.755 227.198C469.459 227.198 468.501 227.978 468.262 229.149L472.815 229.15Z" fill="black"/>
<path d="M438.646 193.888L438.646 215.791C438.648 215.871 438.632 215.951 438.599 216.025C438.566 216.099 438.516 216.167 438.454 216.224C438.391 216.28 438.317 216.325 438.234 216.355C438.152 216.385 438.064 216.399 437.976 216.397L433.038 216.397C432.95 216.399 432.862 216.385 432.78 216.355C432.698 216.325 432.623 216.28 432.56 216.224C432.498 216.167 432.448 216.099 432.415 216.025C432.382 215.951 432.367 215.871 432.369 215.791L432.369 193.888C432.367 193.808 432.382 193.728 432.415 193.654C432.448 193.579 432.498 193.512 432.56 193.455C432.623 193.398 432.698 193.354 432.78 193.324C432.862 193.294 432.95 193.28 433.038 193.281L437.976 193.281C438.064 193.28 438.152 193.294 438.234 193.324C438.317 193.354 438.391 193.398 438.454 193.455C438.516 193.512 438.566 193.579 438.599 193.654C438.632 193.728 438.648 193.808 438.646 193.888V193.888ZM477.176 193.281C477.369 193.281 477.609 193.368 477.846 193.541C477.991 193.671 477.991 193.888 477.944 194.062L469.796 216.008C469.746 216.121 469.661 216.219 469.55 216.289C469.439 216.358 469.308 216.397 469.173 216.399L464.764 216.399C464.477 216.399 464.237 216.268 464.142 216.008L459.394 203.213L454.65 216.007C454.601 216.12 454.515 216.218 454.404 216.287C454.293 216.357 454.162 216.395 454.028 216.397L449.619 216.397C449.332 216.397 449.091 216.268 448.996 216.006L440.848 194.06C440.8 193.888 440.8 193.714 440.944 193.541C441.04 193.368 441.28 193.281 441.471 193.281L446.982 193.281C447.269 193.281 447.509 193.454 447.606 193.714L451.966 206.682L456.759 193.714C456.809 193.6 456.894 193.503 457.005 193.433C457.116 193.364 457.247 193.325 457.382 193.323L461.263 193.323C461.55 193.323 461.79 193.454 461.886 193.714L466.679 206.682L471.04 193.714C471.079 193.591 471.161 193.483 471.273 193.405C471.385 193.327 471.522 193.283 471.663 193.281L477.175 193.281L477.176 193.281ZM485.515 193.281C485.85 193.281 486.138 193.541 486.185 193.888L486.185 215.791C486.187 215.871 486.171 215.951 486.138 216.025C486.105 216.099 486.056 216.167 485.993 216.224C485.93 216.28 485.856 216.325 485.774 216.355C485.691 216.385 485.603 216.399 485.515 216.397L480.578 216.397C480.49 216.399 480.402 216.385 480.319 216.355C480.237 216.325 480.163 216.28 480.1 216.224C480.037 216.167 479.988 216.099 479.955 216.025C479.922 215.951 479.906 215.871 479.908 215.791L479.908 193.888C479.906 193.808 479.922 193.728 479.955 193.654C479.988 193.579 480.037 193.512 480.1 193.455C480.163 193.398 480.237 193.354 480.319 193.324C480.402 193.294 480.49 193.28 480.578 193.281L485.515 193.281ZM429.492 215.618C429.779 215.921 429.54 216.354 429.108 216.354L423.069 216.354C422.951 216.357 422.832 216.335 422.724 216.29C422.616 216.245 422.521 216.178 422.447 216.094L421.441 214.967C419.332 216.18 416.839 216.919 414.204 216.919C406.825 216.919 400.834 211.497 400.834 204.818C400.834 198.138 406.825 192.716 414.204 192.716C421.585 192.716 427.575 198.138 427.575 204.818C427.575 207.204 426.808 209.459 425.467 211.366L429.492 215.617L429.492 215.618ZM379.029 226.244C380.275 226.677 380.755 228.368 380.85 229.105C381.042 230.45 380.612 230.971 380.132 230.971C379.652 230.971 378.981 230.451 378.263 229.41C377.543 228.368 377.255 227.198 377.64 226.59C377.878 226.199 378.405 226.027 379.03 226.244L379.029 226.244ZM371.744 231.145C372.512 231.145 373.374 231.448 374.141 232.055C375.626 233.183 376.058 234.484 375.291 235.438C374.859 235.915 374.141 236.219 373.326 236.219C372.512 236.219 371.649 235.959 371.074 235.481C369.732 234.441 369.349 232.704 370.21 231.752C370.547 231.36 371.074 231.145 371.744 231.145V231.145ZM354.972 243.678C336.76 243.679 322 230.32 322 213.839C322 197.358 336.761 184 354.971 184C373.181 184 387.943 197.359 387.943 213.839C387.943 219.433 386.218 224.683 383.295 229.149C383.198 229.279 382.959 229.236 382.911 229.062C381.761 221.733 376.825 217.698 369.636 216.485C369.012 216.397 368.917 216.051 369.732 215.965C371.936 215.791 375.051 215.834 376.68 216.094C376.777 215.331 376.825 214.564 376.825 213.796C376.825 202.909 367.047 194.06 355.018 194.06C342.99 194.06 333.213 202.909 333.213 213.796C333.213 224.683 342.99 233.531 355.02 233.531L356.025 233.531C355.683 231.77 355.539 229.983 355.593 228.195C355.642 226.981 355.929 226.807 356.505 227.761C359.524 232.489 363.837 236.739 372.271 238.431C379.172 239.82 386.073 241.423 393.501 249.968C394.172 250.705 393.166 251.485 392.399 250.879C384.828 244.805 377.927 242.811 371.648 242.811C364.603 242.855 359.811 243.679 354.971 243.679L354.972 243.678ZM417.511 210.76L414.875 207.853C414.589 207.55 414.829 207.073 415.259 207.073L420.818 207.073C421.105 206.379 421.25 205.598 421.25 204.818C421.25 201.218 418.279 198.095 414.204 198.095C410.132 198.095 407.159 201.218 407.159 204.818C407.159 208.417 410.132 211.497 414.204 211.497C415.355 211.54 416.506 211.238 417.511 210.76L417.511 210.76Z" fill="#F88C00"/>
<path d="M471.626 278.149C471.626 271.771 467.996 266.612 462.869 266.612C457.843 266.612 454.264 271.573 454.264 278.39C454.264 285.241 457.944 290.236 463.224 290.236C466.574 290.236 469.392 288.244 471.143 284.194L467.59 282.001C466.753 284.025 464.924 285.342 463.224 285.342C461.067 285.342 458.58 283.182 458.427 280.179H471.499C471.582 279.508 471.625 278.829 471.626 278.149ZM458.503 276.199C458.808 273.162 460.381 271.172 462.894 271.172C465.382 271.172 466.904 273.122 467.107 276.199H458.503Z" fill="black"/>
<path d="M422.696 266.607C417.544 266.607 413.889 271.536 413.889 278.487C413.889 285.371 417.544 290.231 422.748 290.231C427.976 290.231 431.631 285.371 431.631 278.588C431.631 271.602 427.875 266.607 422.696 266.607ZM422.748 285.067C420.158 285.067 418.559 282.503 418.559 278.52C418.559 274.47 420.184 271.703 422.748 271.703C425.336 271.703 426.961 274.436 426.961 278.52C426.961 282.537 425.362 285.067 422.748 285.067V285.067Z" fill="black"/>
<path d="M404.348 266.614C402.238 266.614 400.648 267.572 399.058 269.95H398.536C397.467 267.803 395.724 266.614 393.769 266.614C392.793 266.601 391.828 266.897 390.954 267.477C390.081 268.057 389.323 268.904 388.744 269.95H388.222L388.197 269.917V267.077H383.829V289.736H388.549V278.075C388.549 274.31 389.742 272.096 391.804 272.096C393.716 272.096 394.958 273.98 394.958 276.853V289.736H399.703V278.075C399.703 274.337 400.896 272.096 402.983 272.096C404.87 272.096 406.088 273.98 406.088 276.887V289.736H410.834V276.126C410.834 270.215 408.448 266.614 404.348 266.614Z" fill="black"/>
<path d="M482.122 281.877H481.785C481.785 281.474 479.727 274.298 478.377 269.852L477.534 267.072H472.778L479.525 289.81L476.867 298.475H481.589L491.305 267.08H486.547L485.771 269.457L483.139 278.114C482.397 280.532 482.093 281.653 482.122 281.877Z" fill="black"/>
<path d="M444.722 266.614C442.61 266.614 440.796 267.836 439.579 270.016H439.082L439.033 269.984V267.077H434.662V289.736H439.382V278.141C439.382 274.443 440.727 272.129 442.935 272.129C444.997 272.129 446.513 274.176 446.513 277.413V289.734H451.233V276.061C451.233 270.512 448.5 266.614 444.722 266.614Z" fill="black"/>
<path d="M351.771 253.625C341.573 253.625 333.378 264.594 333.378 278C333.378 291.517 341.653 302.375 351.769 302.375C361.884 302.375 370.167 291.406 370.167 278C370.167 264.594 361.886 253.625 351.771 253.625ZM351.771 287.085C348.009 287.085 344.917 282.985 344.917 278C344.917 273.014 348.009 268.915 351.771 268.915C355.533 268.915 358.626 273.014 358.626 278C358.542 282.985 355.533 287.085 351.771 287.085Z" fill="#8B3FFD"/>
<path d="M333.378 260.707V296.161H326.861L318.501 260.707H333.378Z" fill="#8B3FFD"/>
</svg>
