<svg width="512" height="341" viewBox="0 0 512 341" fill="none" xmlns="http://www.w3.org/2000/svg">
<path d="M370.336 158.859C370.336 161.336 368.353 163.341 365.901 163.341C363.464 163.341 361.466 161.337 361.466 158.859C361.466 156.382 363.464 154.379 365.901 154.379C368.353 154.38 370.336 156.383 370.336 158.859Z" fill="black"/>
<path d="M370.336 158.859C370.336 161.336 368.353 163.341 365.901 163.341C363.464 163.341 361.466 161.337 361.466 158.859C361.466 156.382 363.464 154.379 365.901 154.379C368.353 154.38 370.336 156.383 370.336 158.859Z" fill="black"/>
<path d="M494.832 245.006L494.082 244.785C483.075 241.803 479.344 238.932 474.457 237.054C457.08 230.365 452.553 225.538 451.396 223.264C451.349 223.169 451.318 223.09 451.287 223.012L451.146 202.611L418.796 202.137L386.446 202.611L386.29 223.012C386.259 223.09 386.228 223.169 386.196 223.264C385.042 225.537 380.513 230.364 363.121 237.054C358.219 238.932 354.503 241.803 343.511 244.785L342.747 245.006C332.724 248.351 325.993 257.739 325.993 268.342V297.798H418.796H511.6V268.342C511.6 257.738 504.856 248.35 494.832 245.006Z" fill="#FE207C"/>
<path d="M475.987 162.946C475.987 200.496 440.562 235.05 418.798 235.05C397.034 235.05 361.593 200.497 361.593 162.946C361.593 125.38 387.198 100.608 418.798 100.608C450.382 100.609 475.987 125.381 475.987 162.946Z" fill="#FFFACC"/>
<path d="M384.231 132.749C474.817 117.35 462.857 231.137 462.857 231.137C502.202 197.515 484.403 96.1444 440.968 89.0452C397.19 81.8976 386.119 97.2651 386.119 97.2651L384.231 132.749Z" fill="#5A464C"/>
<path d="M386.619 96.1443C386.619 96.1443 352.599 111.164 352.599 145.418C352.599 181.832 365.495 201.965 365.495 201.965C365.901 148.369 388.711 131.818 388.711 131.818L386.619 96.1443Z" fill="#5A464C"/>
<path d="M186.635 244.99L185.878 244.769C174.871 241.787 171.148 238.916 166.245 237.038C148.86 230.349 144.34 225.522 143.184 223.233C143.137 223.154 143.106 223.075 143.067 222.981L142.926 202.58L101.693 202.106L60.467 202.58L60.326 222.981C60.288 223.075 60.257 223.154 60.21 223.233C59.055 225.522 54.534 230.349 37.149 237.038C32.247 238.916 28.523 241.787 17.516 244.769L16.758 244.99C6.737 248.35 0 257.738 0 268.341V297.797H101.693H203.395V268.341C203.396 257.738 196.658 248.35 186.635 244.99Z" fill="#0EAD69"/>
<path d="M158.907 163.089C158.907 200.655 123.466 235.224 101.693 235.224C79.922 235.224 44.488 200.655 44.488 163.089C44.488 125.522 70.101 100.75 101.693 100.75C133.294 100.75 158.907 125.522 158.907 163.089Z" fill="#FFDDD3"/>
<path d="M131.226 103.986C131.226 103.986 130.118 93.999 141.959 86.8038C146.979 83.759 66.783 69.3222 46.658 120.521C39.094 139.769 44.683 168.075 44.683 168.075L62.115 136.504C62.115 136.504 81.108 140.985 101.693 140.985C122.279 140.985 141.966 136.504 141.966 136.504L158.906 163.184C158.906 163.184 165.416 137.561 158.125 120.585C150.835 103.607 131.226 103.986 131.226 103.986Z" fill="#9C7600"/>
<path d="M389.399 257.264L388.384 256.949C370.96 252.184 358.189 247.641 350.507 244.642C323.278 234.056 316.174 226.42 314.379 222.807C314.317 222.681 314.254 222.539 314.191 222.412L313.941 188.742L197.619 190.101L197.392 222.413C197.337 222.539 197.283 222.682 197.22 222.808C195.408 226.421 188.321 234.058 161.084 244.66C153.402 247.642 140.623 252.185 123.371 256.919L122.184 257.266C106.486 262.568 95.923 277.446 95.923 294.217V340.888H415.657V294.217C415.659 277.444 405.121 262.566 389.399 257.264Z" fill="#6B7F9E"/>
<path d="M273.551 276.261H238.025L227.377 340.886H284.215L273.551 276.261Z" fill="#DA4453"/>
<path d="M273.551 276.261H238.025L223.818 219.035H287.776L273.551 276.261Z" fill="#ED5564"/>
<path d="M346.385 127.257C346.385 186.755 290.274 243.949 255.792 243.949C221.312 243.949 165.191 186.755 165.191 127.257C165.191 67.776 205.753 28.522 255.792 28.522C305.823 28.522 346.385 67.776 346.385 127.257Z" fill="#EAC6BB"/>
<path d="M314.16 17.7607C298.765 3.65536 247.111 -13.6524 195.597 17.7607C169.508 33.6638 150.515 103.923 150.515 103.923C150.515 103.923 201.406 133.064 267.651 101.572C307.292 82.7182 306.401 92.5943 317.721 109.761C324.434 119.937 346.385 127.257 346.385 127.257C346.385 127.257 363.465 62.8537 314.16 17.7607Z" fill="#252729"/>
<path d="M396.19 90.8116C390.586 92.9732 387.729 95.4976 386.651 96.6496L386.62 96.1443C386.62 96.1443 380.22 98.9689 372.959 104.98C372.272 116.182 372.632 130.413 376.269 145.197L378.44 144.645C382.858 136.977 387.027 133.19 388.307 132.132C390.711 131.817 393.037 131.597 395.286 131.47C392.537 113.594 394.91 97.5167 396.19 90.8116Z" fill="#3C3839"/>
</svg>
