<svg width="361" height="200" viewBox="0 0 361 200" fill="none" xmlns="http://www.w3.org/2000/svg">
<g clip-path="url(#clip0_426_2)">
<rect width="361" height="200" fill="#B40150"/>
<path d="M337.096 153.397C333.932 153.502 331.627 161.011 331.494 157.214C331.362 153.418 333.819 150.256 336.983 150.151C340.147 150.047 341.793 156.514 341.926 160.31C342.059 164.107 340.26 153.293 337.096 153.397Z" fill="#F88C00"/>
<path d="M344 164.295C341.472 164.379 339.687 172.029 339.552 168.152C339.416 164.274 348.536 160.979 351.064 160.895C353.593 160.812 347.989 160.46 348.124 164.338C348.26 168.215 346.529 164.212 344 164.295Z" fill="#F88C00"/>
<path d="M317 161.311C317 163.249 338.021 174.139 328.547 174.139C324.132 174.139 318.776 176.077 318.776 174.139C318.776 172.2 324.132 167.12 328.547 167.12C332.962 167.12 317 159.373 317 161.311Z" fill="#F88C00"/>
<path d="M344.628 179.444C344.628 182.513 350.639 185 347.565 185C344.492 185 342 182.513 342 179.444C342 176.376 347.274 175 350.348 175C353.422 175 344.628 176.376 344.628 179.444Z" fill="#F88C00"/>
<path d="M331.695 190.417C326.088 189.762 336.923 186 337.678 179.886C338.434 173.773 328.824 167.622 334.432 168.277C340.039 168.932 333.819 173.233 333.064 179.347C332.308 185.461 337.303 191.072 331.695 190.417Z" fill="#F88C00"/>
<path d="M24.0962 9.39731C20.9324 9.50187 18.627 17.0105 18.4944 13.2143C18.3617 9.41818 20.819 6.25602 23.9828 6.15146C27.1466 6.0469 28.7933 12.5142 28.926 16.3104C29.0586 20.1065 27.26 9.29275 24.0962 9.39731Z" fill="#F88C00"/>
<path d="M31.0002 20.2951C28.4719 20.3787 26.6873 28.0292 26.5518 24.1518C26.4163 20.2743 35.5362 16.9788 38.0645 16.8952C40.5928 16.8117 34.9887 16.4604 35.1242 20.3378C35.2597 24.2152 33.5285 20.2116 31.0002 20.2951Z" fill="#F88C00"/>
<path d="M4 17.3113C4 19.2494 25.0208 30.1386 15.5467 30.1386C11.1318 30.1386 5.77641 32.0768 5.77641 30.1386C5.77641 28.2004 11.1318 23.1199 15.5467 23.1199C19.9615 23.1199 4 15.3731 4 17.3113Z" fill="#F88C00"/>
<path d="M31.6281 35.4444C31.6281 38.5127 37.6391 41 34.5654 41C31.4917 41 29 38.5127 29 35.4444C29 32.3762 34.2744 31 37.3481 31C40.4218 31 31.6281 32.3762 31.6281 35.4444Z" fill="#F88C00"/>
<path d="M18.6953 46.4171C13.088 45.7617 23.9228 42.0003 24.6784 35.8864C25.4341 29.7726 15.8245 23.6216 21.4317 24.277C27.039 24.9324 20.8192 29.2332 20.0636 35.347C19.3079 41.4609 24.3025 47.0725 18.6953 46.4171Z" fill="#F88C00"/>
<path d="M25.0962 153.397C21.9324 153.502 19.627 161.011 19.4944 157.214C19.3617 153.418 21.819 150.256 24.9828 150.151C28.1466 150.047 29.7933 156.514 29.926 160.31C30.0586 164.107 28.26 153.293 25.0962 153.397Z" fill="#F88C00"/>
<path d="M32.0002 164.295C29.4719 164.379 27.6873 172.029 27.5518 168.152C27.4163 164.274 36.5362 160.979 39.0645 160.895C41.5928 160.812 35.9887 160.46 36.1242 164.338C36.2597 168.215 34.5285 164.212 32.0002 164.295Z" fill="#F88C00"/>
<path d="M5 161.311C5 163.249 26.0208 174.139 16.5467 174.139C12.1318 174.139 6.77641 176.077 6.77641 174.139C6.77641 172.2 12.1318 167.12 16.5467 167.12C20.9615 167.12 5 159.373 5 161.311Z" fill="#F88C00"/>
<path d="M32.6281 179.444C32.6281 182.513 38.6391 185 35.5654 185C32.4917 185 30 182.513 30 179.444C30 176.376 35.2744 175 38.3481 175C41.4218 175 32.6281 176.376 32.6281 179.444Z" fill="#F88C00"/>
<path d="M19.6953 190.417C14.088 189.762 24.9228 186 25.6784 179.886C26.4341 173.773 16.8245 167.622 22.4317 168.277C28.039 168.932 21.8192 173.233 21.0636 179.347C20.3079 185.461 25.3025 191.072 19.6953 190.417Z" fill="#F88C00"/>
<path d="M342.096 7.39731C338.932 7.50187 336.627 15.0105 336.494 11.2143C336.362 7.41818 338.819 4.25602 341.983 4.15146C345.147 4.0469 346.793 10.5142 346.926 14.3104C347.059 18.1065 345.26 7.29275 342.096 7.39731Z" fill="#F88C00"/>
<path d="M349 18.2951C346.472 18.3787 344.687 26.0292 344.552 22.1518C344.416 18.2743 353.536 14.9788 356.064 14.8952C358.593 14.8117 352.989 14.4604 353.124 18.3378C353.26 22.2152 351.529 18.2116 349 18.2951Z" fill="#F88C00"/>
<path d="M322 15.3113C322 17.2494 343.021 28.1386 333.547 28.1386C329.132 28.1386 323.776 30.0768 323.776 28.1386C323.776 26.2004 329.132 21.1199 333.547 21.1199C337.962 21.1199 322 13.3731 322 15.3113Z" fill="#F88C00"/>
<path d="M349.628 33.4444C349.628 36.5127 355.639 39 352.565 39C349.492 39 347 36.5127 347 33.4444C347 30.3762 352.274 29 355.348 29C358.422 29 349.628 30.3762 349.628 33.4444Z" fill="#F88C00"/>
<path d="M336.695 44.4171C331.088 43.7617 341.923 40.0003 342.678 33.8864C343.434 27.7726 333.824 21.6216 339.432 22.277C345.039 22.9324 338.819 27.2332 338.064 33.347C337.308 39.4609 342.303 45.0725 336.695 44.4171Z" fill="#F88C00"/>
<path d="M310.656 179.377C309.962 176.289 302.154 175.429 305.859 174.588C309.563 173.748 313.129 175.57 313.824 178.658C314.518 181.747 308.474 184.574 304.769 185.415C301.065 186.256 311.351 182.465 310.656 179.377Z" fill="#F88C00"/>
<path d="M301.243 188.198C300.688 185.73 292.839 185.409 296.622 184.55C300.406 183.692 305.35 192.034 305.905 194.502C306.46 196.97 305.756 191.399 301.973 192.257C298.189 193.116 301.798 190.666 301.243 188.198Z" fill="#F88C00"/>
<path d="M299.122 161.117C297.218 161.479 290.454 184.166 288.682 174.86C287.856 170.523 284.949 165.625 286.853 165.262C288.757 164.899 294.75 169.209 295.576 173.546C296.403 177.883 301.026 160.754 299.122 161.117Z" fill="#F88C00"/>
<path d="M286.479 191.65C283.465 192.224 282.146 198.594 281.571 195.575C280.996 192.556 282.973 189.642 285.987 189.068C289.001 188.494 291.34 193.418 291.915 196.437C292.49 199.457 289.493 191.076 286.479 191.65Z" fill="#F88C00"/>
<path d="M273.28 180.999C272.874 175.368 278.597 185.307 284.744 184.906C290.891 184.504 295.135 173.913 295.541 179.544C295.946 185.175 290.558 179.87 284.41 180.271C278.263 180.673 273.685 186.63 273.28 180.999Z" fill="#F88C00"/>
<path d="M81.313 188.341C82.5845 185.442 76.8067 180.121 80.2882 181.64C83.7697 183.16 85.5613 186.741 84.2898 189.64C83.0183 192.539 76.4738 191.233 72.9923 189.713C69.5108 188.194 80.0415 191.24 81.313 188.341Z" fill="#F88C00"/>
<path d="M68.5026 189.864C69.5186 187.548 63.3881 182.635 66.9441 184.187C70.5001 185.739 69.5358 195.388 68.5198 197.704C67.5037 200.021 70.2397 195.118 66.6837 193.566C63.1277 192.014 67.4865 192.181 68.5026 189.864Z" fill="#F88C00"/>
<path d="M82.8498 166.798C81.1016 165.961 62.2048 180.222 66.2947 171.676C68.2006 167.693 68.7642 162.026 70.5125 162.863C72.2607 163.699 74.5316 170.723 72.6258 174.706C70.7199 178.688 84.5981 167.634 82.8498 166.798Z" fill="#F88C00"/>
<path d="M54.5664 183.891C51.7988 182.566 46.9603 186.915 48.2872 184.142C49.6141 181.37 52.9334 180.196 55.701 181.52C58.4686 182.845 57.433 188.197 56.1061 190.969C54.7793 193.742 57.3341 185.215 54.5664 183.891Z" fill="#F88C00"/>
<path d="M50.2518 167.488C53.2636 162.714 51.9792 174.11 57.1677 177.431C62.3563 180.752 72.0531 174.74 69.0413 179.514C66.0295 184.289 64.8351 176.822 59.6465 173.501C54.4579 170.181 47.24 172.263 50.2518 167.488Z" fill="#F88C00"/>
<path d="M86.155 16.0537C84.9807 13.114 77.1356 13.4997 80.6604 12.0839C84.1851 10.6681 87.9945 11.9034 89.1688 14.8431C90.3432 17.7828 84.8214 21.5308 81.2966 22.9466C77.7719 24.3625 87.3294 18.9934 86.155 16.0537Z" fill="#F88C00"/>
<path d="M78.2547 26.2525C77.3163 23.9033 69.5149 24.827 73.1151 23.3809C76.7153 21.9348 82.916 29.3902 83.8544 31.7394C84.7929 34.0885 83.2173 28.6991 79.6171 30.1452C76.0169 31.5913 79.1931 28.6017 78.2547 26.2525Z" fill="#F88C00"/>
<path d="M71.8782 -0.153051C70.0556 0.506108 66.9646 23.9773 63.7424 15.0678C62.241 10.9161 58.597 6.53913 60.4196 5.87997C62.2423 5.22081 68.8413 8.52909 70.3428 12.6808C71.8443 16.8325 73.7008 -0.812211 71.8782 -0.153051Z" fill="#F88C00"/>
<path d="M64.2221 31.9952C61.3367 33.0387 61.042 39.5373 59.9967 36.6468C58.9513 33.7563 60.4429 30.5672 63.3283 29.5237C66.2137 28.4802 69.3016 32.9722 70.347 35.8627C71.3923 38.7532 67.1075 30.9517 64.2221 31.9952Z" fill="#F88C00"/>
<path d="M49.5051 23.565C48.2145 18.0691 55.4365 26.9787 61.4429 25.61C67.4492 24.2414 69.9655 13.1127 71.2561 18.6086C72.5468 24.1045 66.387 19.7181 60.3806 21.0868C54.3743 22.4555 50.7958 29.0609 49.5051 23.565Z" fill="#F88C00"/>
<path d="M317.799 21.1357C317.656 17.9734 310.12 15.7589 313.915 15.5804C317.709 15.4019 320.901 17.8208 321.043 20.9831C321.186 24.1454 314.739 25.8702 310.945 26.0487C307.151 26.2272 317.942 24.2981 317.799 21.1357Z" fill="#F88C00"/>
<path d="M306.986 28.171C306.872 25.6439 299.2 23.9518 303.076 23.7695C306.951 23.5872 310.357 32.6665 310.471 35.1936C310.585 37.7207 310.868 32.1128 306.993 32.2951C303.117 32.4775 307.1 30.6981 306.986 28.171Z" fill="#F88C00"/>
<path d="M309.643 1.13657C307.705 1.15998 297.071 22.3108 296.956 12.8373C296.903 8.42277 294.9 3.0912 296.838 3.06779C298.776 3.04438 303.921 8.33799 303.974 12.7525C304.028 17.1671 311.581 1.11316 309.643 1.13657Z" fill="#F88C00"/>
<path d="M291.845 28.9818C288.777 29.0188 286.362 35.0594 286.325 31.986C286.288 28.9125 288.745 26.3909 291.813 26.3539C294.881 26.3168 296.321 31.5742 296.358 34.6477C296.395 37.7211 294.913 28.9447 291.845 28.9818Z" fill="#F88C00"/>
<path d="M280.717 16.1824C281.305 10.5677 285.197 21.3562 291.319 22.0379C297.442 22.7197 303.476 13.0365 302.888 18.6512C302.301 24.266 297.925 18.0986 291.803 17.4169C285.68 16.7351 280.129 21.7972 280.717 16.1824Z" fill="#F88C00"/>
<path d="M342.46 139.14C344.314 135.133 342.008 130.463 343.956 131.19C345.904 131.917 345.98 135.754 344.126 139.761C342.271 143.768 338.097 144.318 336.149 143.591C334.201 142.864 340.606 143.146 342.46 139.14Z" fill="#F88C00"/>
<path d="M332.938 145.263C334.42 142.061 331.73 138.013 333.72 138.756C335.71 139.498 331.838 151.753 330.356 154.955C328.874 158.157 332.423 151.186 330.433 150.444C328.443 149.701 331.456 148.465 332.938 145.263Z" fill="#F88C00"/>
<path d="M350.671 111.982C349.717 111.525 331.697 135.419 337.404 123.494C340.063 117.937 342.335 110.74 343.289 111.197C344.243 111.653 343.517 119.59 340.857 125.147C338.198 130.704 351.625 112.438 350.671 111.982Z" fill="#F88C00"/>
<path d="M325.105 142.485C323.596 141.763 318.751 148.743 320.602 144.874C322.454 141.005 325.179 138.455 326.688 139.177C328.198 139.9 325.698 146.863 323.847 150.732C321.995 154.6 326.615 143.208 325.105 142.485Z" fill="#F88C00"/>
<path d="M327.496 123.624C331.197 116.72 326.521 131.243 329.074 133.634C331.628 136.025 340.443 125.379 336.743 132.282C333.043 139.185 334.673 130.344 332.12 127.953C329.566 125.562 323.796 130.527 327.496 123.624Z" fill="#F88C00"/>
<path d="M22.4597 75.1396C24.3141 71.1328 22.0079 66.4628 23.9558 67.1899C25.9038 67.9169 25.9796 71.7544 24.1253 75.7612C22.2709 79.768 18.0965 80.3176 16.1486 79.5906C14.2007 78.8635 20.6054 79.1464 22.4597 75.1396Z" fill="#F88C00"/>
<path d="M12.9383 81.2629C14.4201 78.061 11.7304 74.0131 13.7201 74.7557C15.7097 75.4982 11.8379 87.7531 10.356 90.955C8.87414 94.157 12.4227 87.1861 10.4331 86.4435C8.44344 85.7009 11.4564 84.4649 12.9383 81.2629Z" fill="#F88C00"/>
<path d="M30.6708 47.9816C29.7171 47.5252 11.6963 71.4188 17.4033 59.494C20.0627 53.9372 22.3349 46.7402 23.2886 47.1966C24.2424 47.6531 23.5165 55.5901 20.8571 61.147C18.1977 66.7038 31.6245 48.4381 30.6708 47.9816Z" fill="#F88C00"/>
<path d="M5.1051 78.4853C3.59526 77.7627 -1.24956 84.7428 0.601946 80.874C2.45345 77.0053 5.17836 74.4549 6.6882 75.1774C8.19804 75.9 5.69808 82.8628 3.84657 86.7315C1.99506 90.6003 6.61494 79.2079 5.1051 78.4853Z" fill="#F88C00"/>
<path d="M7.49616 59.6235C11.1963 52.7203 6.52071 67.2433 9.07405 69.6342C11.6274 72.0252 20.4428 61.3786 16.7426 68.2818C13.0424 75.1851 14.6727 66.3437 12.1193 63.9527C9.56601 61.5618 3.796 66.5268 7.49616 59.6235Z" fill="#F88C00"/>
<path d="M7.7329 131.648C9.70856 135.596 14.7974 136.706 13.0142 137.775C11.231 138.845 8.1839 136.511 6.20824 132.562C4.23257 128.614 6.40633 125.008 8.1895 123.939C9.97266 122.87 5.75724 127.7 7.7329 131.648Z" fill="#F88C00"/>
<path d="M8.8845 120.386C10.4633 123.542 15.305 123.963 13.4837 125.056C11.6624 126.148 4.49738 115.478 2.91857 112.323C1.33977 109.168 4.57585 116.289 6.39718 115.197C8.21851 114.105 7.3057 117.231 8.8845 120.386Z" fill="#F88C00"/>
<path d="M23.8415 155.004C24.7932 154.543 17.3541 125.555 23.1166 137.453C25.8018 142.997 30.0107 149.262 29.0591 149.722C28.1075 150.183 22.3557 144.666 19.6705 139.122C16.9853 133.577 22.8899 155.465 23.8415 155.004Z" fill="#F88C00"/>
<path d="M15.9406 115.995C17.4471 115.266 15.0122 107.125 16.8817 110.985C18.7512 114.845 19.0455 118.566 17.5391 119.296C16.0326 120.025 12.1489 113.729 10.2794 109.869C8.40989 106.009 14.4341 116.725 15.9406 115.995Z" fill="#F88C00"/>
<path d="M29.1938 129.627C32.2825 136.825 23.8457 124.113 20.3843 124.618C16.9229 125.122 19.7477 138.653 16.659 131.456C13.5703 124.258 19.465 131.046 22.9264 130.541C26.3878 130.037 26.1051 122.43 29.1938 129.627Z" fill="#F88C00"/>
<path d="M352.909 66.0821C350.613 62.3108 345.45 61.6263 347.138 60.413C348.827 59.1998 352.057 61.2735 354.352 65.0448C356.648 68.816 354.78 72.5895 353.092 73.8027C351.403 75.016 355.204 69.8534 352.909 66.0821Z" fill="#F88C00"/>
<path d="M352.693 77.4006C350.859 74.3869 345.999 74.3672 347.723 73.128C349.448 71.8888 357.472 81.9283 359.306 84.9421C361.141 87.9558 357.326 81.1268 355.602 82.366C353.877 83.6053 354.528 80.4143 352.693 77.4006Z" fill="#F88C00"/>
<path d="M334.922 44.1404C334.012 44.6784 343.825 72.9512 337.097 61.5711C333.962 56.268 329.249 50.3734 330.159 49.8353C331.069 49.2972 337.258 54.3195 340.393 59.6225C343.528 64.9256 335.832 43.6023 334.922 44.1404Z" fill="#F88C00"/>
<path d="M346.025 82.3607C344.584 83.2125 347.684 91.1233 345.502 87.4312C343.319 83.7392 342.718 80.0557 344.159 79.2038C345.6 78.352 349.991 84.3055 352.174 87.9975C354.357 91.6896 347.466 81.5089 346.025 82.3607Z" fill="#F88C00"/>
<path d="M331.689 69.8724C328.015 62.9552 337.475 74.9253 340.883 74.1356C344.29 73.346 340.355 60.0955 344.029 67.0127C347.703 73.93 341.267 67.653 337.859 68.4426C334.451 69.2323 335.363 76.7896 331.689 69.8724Z" fill="#F88C00"/>
<path d="M240.842 197.091C245.256 197.163 248.592 193.163 248.716 195.238C248.841 197.314 245.363 198.938 240.948 198.865C236.534 198.793 234.34 195.199 234.216 193.124C234.092 191.048 236.427 197.018 240.842 197.091Z" fill="#F88C00"/>
<path d="M231.387 190.866C234.914 190.924 237.526 186.825 237.653 188.945C237.78 191.065 225.007 192.489 221.479 192.431C217.951 192.373 225.762 192.794 225.635 190.674C225.508 188.554 227.859 190.808 231.387 190.866Z" fill="#F88C00"/>
<path d="M268.998 193.597C269.029 192.54 239.884 185.743 253.098 186.13C259.256 186.311 266.757 185.473 266.726 186.53C266.695 187.587 259.144 190.138 252.986 189.958C246.828 189.777 268.967 194.654 268.998 193.597Z" fill="#F88C00"/>
<path d="M230.753 182.579C230.802 180.906 222.458 179.304 226.745 179.429C231.032 179.555 234.468 181.013 234.419 182.687C234.37 184.36 226.991 184.894 222.704 184.769C218.417 184.643 230.704 184.252 230.753 182.579Z" fill="#F88C00"/>
<path d="M248.967 177.125C256.777 177.712 241.605 179.32 240.453 182.622C239.302 185.925 252.606 189.673 244.796 189.086C236.986 188.499 245.73 186.408 246.881 183.105C248.033 179.802 241.156 176.538 248.967 177.125Z" fill="#F88C00"/>
<path d="M270.842 21.0908C275.257 21.1632 278.592 17.163 278.717 19.2385C278.841 21.3139 275.363 22.9378 270.948 22.8654C266.534 22.793 264.341 19.199 264.216 17.1235C264.092 15.048 266.428 21.0184 270.842 21.0908Z" fill="#F88C00"/>
<path d="M261.387 14.8656C264.915 14.9235 267.526 10.8246 267.653 12.9445C267.78 15.0644 255.007 16.4885 251.479 16.4306C247.952 16.3728 255.762 16.7935 255.636 14.6736C255.509 12.5537 257.859 14.8078 261.387 14.8656Z" fill="#F88C00"/>
<path d="M298.998 17.5974C299.029 16.5405 269.884 9.74276 283.099 10.1303C289.256 10.3109 296.757 9.47305 296.726 10.5299C296.695 11.5868 289.144 14.1382 282.986 13.9576C276.829 13.777 298.967 18.6542 298.998 17.5974Z" fill="#F88C00"/>
<path d="M260.753 6.57892C260.802 4.9058 252.458 3.3036 256.745 3.42932C261.032 3.55505 264.468 5.0133 264.419 6.68642C264.37 8.35954 256.991 8.89424 252.704 8.76851C248.417 8.64279 260.704 8.25204 260.753 6.57892Z" fill="#F88C00"/>
<path d="M278.967 1.12473C286.777 1.71148 271.605 3.3194 270.454 6.62236C269.302 9.92533 282.607 13.6726 274.796 13.0858C266.986 12.4991 275.73 10.4082 276.882 7.10527C278.033 3.80231 271.157 0.537982 278.967 1.12473Z" fill="#F88C00"/>
<path d="M114.842 18.0906C119.256 18.163 122.592 14.1629 122.716 16.2383C122.841 18.3138 119.363 19.9376 114.948 19.8652C110.534 19.7928 108.34 16.1989 108.216 14.1234C108.092 12.0479 110.427 18.0182 114.842 18.0906Z" fill="#F88C00"/>
<path d="M105.387 11.8655C108.914 11.9233 111.526 7.82451 111.653 9.94441C111.78 12.0643 99.0069 13.4884 95.4792 13.4305C91.9515 13.3726 99.7622 13.7934 99.6353 11.6735C99.5083 9.5536 101.859 11.8076 105.387 11.8655Z" fill="#F88C00"/>
<path d="M142.998 14.5972C143.029 13.5404 113.884 6.74264 127.098 7.13017C133.256 7.31076 140.757 6.47293 140.726 7.52981C140.695 8.5867 133.144 11.1381 126.986 10.9575C120.828 10.7769 142.967 15.6541 142.998 14.5972Z" fill="#F88C00"/>
<path d="M104.753 3.57892C104.802 1.9058 96.458 0.303597 100.745 0.429323C105.032 0.55505 108.468 2.0133 108.419 3.68642C108.37 5.35954 100.991 5.89424 96.7039 5.76851C92.4168 5.64279 104.704 5.25204 104.753 3.57892Z" fill="#F88C00"/>
<path d="M122.967 -1.87539C130.777 -1.28864 115.605 0.319279 114.453 3.62224C113.302 6.9252 126.606 10.6724 118.796 10.0857C110.986 9.49894 119.73 7.40811 120.881 4.10515C122.033 0.802184 115.156 -2.46214 122.967 -1.87539Z" fill="#F88C00"/>
<path d="M110.842 195.091C115.256 195.163 118.592 191.163 118.716 193.238C118.841 195.314 115.363 196.938 110.948 196.865C106.534 196.793 104.34 193.199 104.216 191.124C104.092 189.048 106.427 195.018 110.842 195.091Z" fill="#F88C00"/>
<path d="M101.387 188.866C104.914 188.924 107.526 184.825 107.653 186.945C107.78 189.065 95.0069 190.489 91.4792 190.431C87.9515 190.373 95.7622 190.794 95.6353 188.674C95.5083 186.554 97.8588 188.808 101.387 188.866Z" fill="#F88C00"/>
<path d="M138.998 191.597C139.029 190.54 109.884 183.743 123.098 184.13C129.256 184.311 136.757 183.473 136.726 184.53C136.695 185.587 129.144 188.138 122.986 187.958C116.828 187.777 138.967 192.654 138.998 191.597Z" fill="#F88C00"/>
<path d="M100.753 180.579C100.802 178.906 92.458 177.304 96.7451 177.429C101.032 177.555 104.468 179.013 104.419 180.687C104.37 182.36 96.991 182.894 92.7039 182.769C88.4168 182.643 100.704 182.252 100.753 180.579Z" fill="#F88C00"/>
<path d="M118.967 175.125C126.777 175.712 111.605 177.32 110.453 180.622C109.302 183.925 122.606 187.673 114.796 187.086C106.986 186.499 115.73 184.408 116.881 181.105C118.033 177.802 111.156 174.538 118.967 175.125Z" fill="#F88C00"/>
<path d="M92.4158 55.2983C91.0345 80.161 93.5371 104.985 93.5371 129.868" stroke="white" stroke-width="3" stroke-linecap="round"/>
<path d="M93.5371 59.223C98.7908 54.0888 104.729 50.993 109.485 58.4132C111.123 60.9682 112.966 64.0677 113.129 67.1658C113.304 70.474 114.127 75.9744 112.475 78.9711C111.205 81.2773 108.883 84.0653 106.993 85.886C104.425 88.3611 100.69 89.5179 98.0536 92.0222C96.8905 93.1272 92.9332 99.009 94.0978 99.5913" stroke="white" stroke-width="3" stroke-linecap="round"/>
<path d="M119.888 83.8926C119.503 87.169 118.882 108.586 126.212 102.8C131.198 98.8626 133.973 94.1234 138.141 89.5616C140.354 87.1402 140.025 93.3998 140.041 94.1092C140.139 98.2159 140.1 102.336 140.073 106.444C140.037 111.812 140.486 118.882 138.079 123.856C136.006 128.14 129.023 127.702 125.184 127.594C120.871 127.472 116.608 127.064 112.288 127.064C110.677 127.064 111.05 127.462 111.478 128.746" stroke="white" stroke-width="3" stroke-linecap="round"/>
<path d="M158.092 67C156.376 79.6523 156.694 92.6792 157.002 105.437C157.199 113.62 158.653 121.592 158.653 129.795" stroke="white" stroke-width="3" stroke-linecap="round"/>
<path d="M148 101.762C152.762 100.787 157.053 99.9286 161.643 98.4598C163.767 97.7802 163.126 97.27 165.381 98.3975" stroke="white" stroke-width="3" stroke-linecap="round"/>
<path d="M175.517 67C174.509 79.2175 175.046 91.168 176.513 103.319C177.134 108.453 177.155 113.547 177.199 118.706C177.219 121.121 177.149 123.97 178.32 126.182C179.199 127.841 179.437 124.255 179.441 123.939C179.485 120.856 179.408 117.808 178.756 114.782C177.73 110.021 175.042 103.736 180.376 100.765C185.656 97.8238 188.632 97.3416 190.53 103.444C192.525 109.855 192.767 115.732 192.898 122.382C193.113 133.387 200.759 115.705 201.308 112.414" stroke="white" stroke-width="3" stroke-linecap="round"/>
<path d="M212.192 104.656C211.174 110.539 208.888 122.705 216.335 125.619C218.931 126.635 222.172 123.714 223.717 121.913C226.373 118.813 227.149 114.209 226.676 110.263C226.14 105.797 220.139 95.3751 214.31 98.6135C207.82 102.219 209.656 109.872 213.313 114.748" stroke="white" stroke-width="3" stroke-linecap="round"/>
<path d="M234.003 95.7494C234.003 103.187 236.126 110.223 237.117 117.584C237.267 118.694 237.629 127.938 237.896 123.658C238.279 117.528 234.472 112.593 234.034 106.682C233.67 101.768 236.263 96.7749 241.011 94.7215C251.39 90.2335 254.617 107.864 254.747 115.061C254.819 119.015 254.071 123.003 259.171 123.658C264.318 124.32 270.213 121.984 274.932 124.344" stroke="white" stroke-width="3" stroke-linecap="round"/>
</g>
<defs>
<clipPath id="clip0_426_2">
<rect width="361" height="200" fill="white"/>
</clipPath>
</defs>
</svg>
