<svg width="62" height="57" viewBox="0 0 62 57" fill="none" xmlns="http://www.w3.org/2000/svg">
<g filter="url(#filter0_d_1_45)">
<path d="M57.3761 27.9422C57.3761 41.8462 45.2918 39.0945 30.7802 39.0945C16.2686 39.0945 6 41.8462 6 27.9422C6 14.0382 17.4435 1 31.9551 1C46.4667 1 57.3761 14.0382 57.3761 27.9422Z" fill="#B40150"/>
<path d="M57.3761 27.9422C57.3761 41.8462 45.2918 39.0945 30.7802 39.0945C16.2686 39.0945 6 41.8462 6 27.9422C6 14.0382 17.4435 1 31.9551 1C46.4667 1 57.3761 14.0382 57.3761 27.9422Z" fill="#B40150"/>
<path d="M51.3823 27.0909C51.3823 37.3221 42.1176 35.2973 30.992 35.2973C19.8665 35.2973 11.9939 37.3221 11.9939 27.0909C11.9939 16.8596 20.7673 7.26547 31.8928 7.26547C43.0184 7.26547 51.3823 16.8596 51.3823 27.0909Z" fill="url(#paint0_linear_1_45)"/>
<path d="M51.3823 27.0909C51.3823 37.3221 42.1176 35.2973 30.992 35.2973C19.8665 35.2973 11.9939 37.3221 11.9939 27.0909C11.9939 16.8596 20.7673 7.26547 31.8928 7.26547C43.0184 7.26547 51.3823 16.8596 51.3823 27.0909Z" fill="url(#paint1_linear_1_45)"/>
<path d="M11.58 45.93L9.76 49.18H7.94L6.12 45.93V51H3.78V41.9H6.25L8.85 46.71L11.45 41.9H13.92V51H11.58V45.93ZM22.3751 49.05C22.3751 49.7 22.1887 50.2113 21.8161 50.584C21.4521 50.948 20.9451 51.13 20.2951 51.13H17.3051C16.6551 51.13 16.1437 50.948 15.7711 50.584C15.4071 50.2113 15.2251 49.7 15.2251 49.05V46.06C15.2251 45.41 15.4071 44.903 15.7711 44.539C16.1437 44.1663 16.6551 43.98 17.3051 43.98H20.2951C20.9451 43.98 21.4521 44.1663 21.8161 44.539C22.1887 44.903 22.3751 45.41 22.3751 46.06V49.05ZM20.1001 46.255C20.1001 45.9083 19.9267 45.735 19.5801 45.735H18.0201C17.6734 45.735 17.5001 45.9083 17.5001 46.255V48.855C17.5001 49.2017 17.6734 49.375 18.0201 49.375H19.5801C19.9267 49.375 20.1001 49.2017 20.1001 48.855V46.255ZM29.6536 50.87C28.0329 51.0433 26.6029 51.13 25.3636 51.13C24.7742 51.13 24.3019 50.9523 23.9466 50.597C23.5912 50.2417 23.4136 49.7693 23.4136 49.18V46.19C23.4136 45.54 23.5956 45.033 23.9596 44.669C24.3322 44.2963 24.8436 44.11 25.4936 44.11H29.6536V45.865H26.2086C25.8619 45.865 25.6886 46.0383 25.6886 46.385V48.92C25.6886 49.05 25.7319 49.1583 25.8186 49.245C25.9052 49.3317 26.0136 49.375 26.1436 49.375C26.9236 49.375 28.0936 49.31 29.6536 49.18V50.87ZM32.966 44.24C33.8067 44.0667 34.5433 43.98 35.176 43.98H35.761C36.3503 43.98 36.8227 44.1577 37.178 44.513C37.5333 44.8683 37.711 45.3407 37.711 45.93V51H35.436V46.19C35.436 46.06 35.3927 45.9517 35.306 45.865C35.2193 45.7783 35.111 45.735 34.981 45.735H34.526C34.1967 45.735 33.8933 45.7523 33.616 45.787C33.3473 45.8217 33.1307 45.8477 32.966 45.865V51H30.691V41.9H32.966V44.24ZM41.7395 44.37V51H39.4645V46.125H38.4895V44.37H41.7395ZM39.4645 41.77H41.7395V43.59H39.4645V41.77ZM43.1736 41.9H48.6336C49.5436 41.9 50.2022 42.108 50.6096 42.524C51.0256 42.9313 51.2336 43.59 51.2336 44.5V45.8C51.2336 46.71 51.0256 47.373 50.6096 47.789C50.2022 48.1963 49.5436 48.4 48.6336 48.4H45.5136V51H43.1736V41.9ZM48.8936 44.5C48.8936 43.98 48.6336 43.72 48.1136 43.72H45.5136V46.58H48.1136C48.6336 46.58 48.8936 46.32 48.8936 45.8V44.5ZM54.093 53.34C53.6337 53.34 53.0704 53.2967 52.403 53.21V51.52H53.573C53.9024 51.52 54.1147 51.429 54.21 51.247C54.314 51.065 54.2967 50.8093 54.158 50.48L51.493 44.11H53.898L55.523 48.53L56.888 44.11H59.293L56.693 51.26C56.4417 51.9447 56.1167 52.4603 55.718 52.807C55.3194 53.1623 54.7777 53.34 54.093 53.34Z" fill="url(#paint2_linear_1_45)"/>
</g>
<defs>
<filter id="filter0_d_1_45" x="0.780029" y="0" width="59.5129" height="56.34" filterUnits="userSpaceOnUse" color-interpolation-filters="sRGB">
<feFlood flood-opacity="0" result="BackgroundImageFix"/>
<feColorMatrix in="SourceAlpha" type="matrix" values="0 0 0 0 0 0 0 0 0 0 0 0 0 0 0 0 0 0 127 0" result="hardAlpha"/>
<feOffset dx="-1" dy="1"/>
<feGaussianBlur stdDeviation="1"/>
<feComposite in2="hardAlpha" operator="out"/>
<feColorMatrix type="matrix" values="0 0 0 0 0 0 0 0 0 0 0 0 0 0 0 0 0 0 0.15 0"/>
<feBlend mode="normal" in2="BackgroundImageFix" result="effect1_dropShadow_1_45"/>
<feBlend mode="normal" in="SourceGraphic" in2="effect1_dropShadow_1_45" result="shape"/>
</filter>
<linearGradient id="paint0_linear_1_45" x1="50" y1="21" x2="13.5" y2="21" gradientUnits="userSpaceOnUse">
<stop stop-color="#FE207C"/>
<stop offset="1" stop-color="#FEB95F"/>
</linearGradient>
<linearGradient id="paint1_linear_1_45" x1="50" y1="21" x2="13.5" y2="21" gradientUnits="userSpaceOnUse">
<stop stop-color="#FE207C"/>
<stop offset="1" stop-color="#FEB95F"/>
</linearGradient>
<linearGradient id="paint2_linear_1_45" x1="58.5" y1="47" x2="4" y2="47" gradientUnits="userSpaceOnUse">
<stop stop-color="#FEB95F"/>
<stop offset="1" stop-color="#FE207C"/>
</linearGradient>
</defs>
</svg>
