<svg width="472" height="399" viewBox="0 0 472 399" fill="none" xmlns="http://www.w3.org/2000/svg">
<path d="M422.892 145.242C418.457 148.029 413.326 147.843 411.431 144.828C409.536 141.813 411.595 137.109 416.03 134.322C420.465 131.535 432.402 127.444 434.296 130.46C436.191 133.475 427.327 142.455 422.892 145.242Z" fill="#0EAD69" fill-opacity="0.43"/>
<path d="M56.1108 358.801C60.6281 356.149 65.7514 356.49 67.554 359.561C69.3566 362.632 67.156 367.271 62.6387 369.923C58.1214 372.574 46.0666 376.302 44.264 373.231C42.4613 370.159 51.5935 361.452 56.1108 358.801Z" fill="#0EAD69" fill-opacity="0.43"/>
<path d="M71.3541 65.3709C74.8301 69.2891 75.4883 74.3813 72.8243 76.7447C70.1602 79.108 65.1828 77.8475 61.7068 73.9293C58.2308 70.011 52.2388 58.9064 54.9029 56.5431C57.5669 54.1798 67.8781 61.4526 71.3541 65.3709Z" fill="#0EAD69" fill-opacity="0.43"/>
<path d="M66.0405 141.917C69.5165 145.835 70.0033 151.079 67.1278 153.63C64.2524 156.181 59.1035 155.072 55.6276 151.154C52.1516 147.236 46.331 135.979 49.2065 133.428C52.0819 130.878 62.5645 137.998 66.0405 141.917Z" fill="#EA0B67"/>
<path d="M66.0405 141.917C69.5165 145.835 70.0033 151.079 67.1278 153.63C64.2524 156.181 59.1035 155.072 55.6276 151.154C52.1516 147.236 46.331 135.979 49.2065 133.428C52.0819 130.878 62.5645 137.998 66.0405 141.917Z" fill="#EA0B67"/>
<path d="M66.0405 141.917C69.5165 145.835 70.0033 151.079 67.1278 153.63C64.2524 156.181 59.1035 155.072 55.6276 151.154C52.1516 147.236 46.331 135.979 49.2065 133.428C52.0819 130.878 62.5645 137.998 66.0405 141.917Z" fill="#EA0B67"/>
<path d="M66.0405 141.917C69.5165 145.835 70.0033 151.079 67.1278 153.63C64.2524 156.181 59.1035 155.072 55.6276 151.154C52.1516 147.236 46.331 135.979 49.2065 133.428C52.0819 130.878 62.5645 137.998 66.0405 141.917Z" fill="#EA0B67"/>
<path d="M375.042 94.3011C378.518 98.2193 379.004 103.464 376.129 106.014C373.253 108.565 368.105 107.457 364.629 103.539C361.153 99.6204 394.626 94.245 397.501 91.6941C400.376 89.1432 371.566 90.3828 375.042 94.3011Z" fill="#EA0B67"/>
<path d="M375.042 94.3011C378.518 98.2193 379.004 103.464 376.129 106.014C373.253 108.565 368.105 107.457 364.629 103.539C361.153 99.6204 394.626 94.245 397.501 91.6941C400.376 89.1432 371.566 90.3828 375.042 94.3011Z" fill="#EA0B67"/>
<path d="M375.042 94.3011C378.518 98.2193 379.004 103.464 376.129 106.014C373.253 108.565 368.105 107.457 364.629 103.539C361.153 99.6204 394.626 94.245 397.501 91.6941C400.376 89.1432 371.566 90.3828 375.042 94.3011Z" fill="#EA0B67"/>
<path d="M375.042 94.3011C378.518 98.2193 379.004 103.464 376.129 106.014C373.253 108.565 368.105 107.457 364.629 103.539C361.153 99.6204 394.626 94.245 397.501 91.6941C400.376 89.1432 371.566 90.3828 375.042 94.3011Z" fill="#EA0B67"/>
<path d="M135.5 340.5C138.976 344.418 132.004 366.464 129.129 369.014C126.253 371.565 121.105 370.457 117.629 366.539C114.153 362.62 132.625 352.051 135.5 349.5C138.375 346.949 132.024 336.582 135.5 340.5Z" fill="#EA0B67"/>
<path d="M135.5 340.5C138.976 344.418 132.004 366.464 129.129 369.014C126.253 371.565 121.105 370.457 117.629 366.539C114.153 362.62 132.625 352.051 135.5 349.5C138.375 346.949 132.024 336.582 135.5 340.5Z" fill="#EA0B67"/>
<path d="M135.5 340.5C138.976 344.418 132.004 366.464 129.129 369.014C126.253 371.565 121.105 370.457 117.629 366.539C114.153 362.62 132.625 352.051 135.5 349.5C138.375 346.949 132.024 336.582 135.5 340.5Z" fill="#EA0B67"/>
<path d="M135.5 340.5C138.976 344.418 132.004 366.464 129.129 369.014C126.253 371.565 121.105 370.457 117.629 366.539C114.153 362.62 132.625 352.051 135.5 349.5C138.375 346.949 132.024 336.582 135.5 340.5Z" fill="#EA0B67"/>
<path d="M224.807 63.9919C228.283 67.9102 221.312 89.9555 218.436 92.5064C215.561 95.0573 210.412 93.9488 206.936 90.0306C203.46 86.1123 221.932 75.5428 224.807 72.9919C227.683 70.441 221.331 60.0737 224.807 63.9919Z" fill="#EA0B67"/>
<path d="M224.807 63.9919C228.283 67.9102 221.312 89.9555 218.436 92.5064C215.561 95.0573 210.412 93.9488 206.936 90.0306C203.46 86.1123 221.932 75.5428 224.807 72.9919C227.683 70.441 221.331 60.0737 224.807 63.9919Z" fill="#EA0B67"/>
<path d="M224.807 63.9919C228.283 67.9102 221.312 89.9555 218.436 92.5064C215.561 95.0573 210.412 93.9488 206.936 90.0306C203.46 86.1123 221.932 75.5428 224.807 72.9919C227.683 70.441 221.331 60.0737 224.807 63.9919Z" fill="#EA0B67"/>
<path d="M224.807 63.9919C228.283 67.9102 221.312 89.9555 218.436 92.5064C215.561 95.0573 210.412 93.9488 206.936 90.0306C203.46 86.1123 221.932 75.5428 224.807 72.9919C227.683 70.441 221.331 60.0737 224.807 63.9919Z" fill="#EA0B67"/>
<path d="M391.928 369.464C388.654 365.375 388.254 360.256 391.033 358.03C393.813 355.804 398.721 357.315 401.995 361.403C405.268 365.492 410.692 376.885 407.912 379.111C405.133 381.336 395.202 373.552 391.928 369.464Z" fill="#0EAD69" fill-opacity="0.43"/>
<path d="M226.928 54.0067C223.654 49.9181 223.254 44.7991 226.033 42.5732C228.813 40.3474 244.726 72.9543 248 77.0429C251.274 81.1316 245.692 61.4277 242.912 63.6535C240.133 65.8794 230.202 58.0954 226.928 54.0067Z" fill="#0EAD69" fill-opacity="0.43"/>
<path d="M278.1 375.178C276.388 370.228 277.728 365.272 281.094 364.108C284.46 362.944 288.576 366.013 290.288 370.963C292 375.913 293.287 388.465 289.921 389.63C286.556 390.794 279.812 380.129 278.1 375.178Z" fill="#0EAD69" fill-opacity="0.43"/>
<path d="M69.9278 317.907C66.654 313.818 66.2536 308.699 69.0335 306.473C85.9125 343.443 87.2262 302.385 90.5 306.473C93.7738 310.562 88.6924 325.328 85.9125 327.554C83.1326 329.78 73.2016 321.996 69.9278 317.907Z" fill="#0EAD69" fill-opacity="0.43"/>
<path d="M328.19 77.4836C324.219 72.5242 323.254 66.6994 326.033 64.4735C348.158 107.994 345.315 61.7445 349.286 66.7039C353.257 71.6633 349.287 87.8172 346.507 90.0431C343.727 92.2689 332.161 82.443 328.19 77.4836Z" fill="#0EAD69" fill-opacity="0.43"/>
<path d="M381.443 210.72C376.228 210.234 372.268 206.966 372.598 203.42C372.928 199.875 377.423 197.393 382.638 197.879C387.854 198.364 399.817 202.377 399.487 205.923C399.157 209.469 386.658 211.205 381.443 210.72Z" fill="#0EAD69" fill-opacity="0.43"/>
<path d="M128.928 92.4638C125.654 88.3751 125.254 83.2562 128.033 81.0303C130.813 78.8044 135.721 80.3145 138.995 84.4032C142.268 88.4919 147.692 99.8847 144.912 102.111C142.133 104.336 132.202 96.5525 128.928 92.4638Z" fill="#0EAD69" fill-opacity="0.43"/>
<path d="M409.779 327.33C405.344 330.117 400.213 329.932 398.318 326.917C396.423 323.901 406.452 324.375 410.887 321.589C415.322 318.802 411.993 307.573 413.888 310.589C415.782 313.604 414.214 324.544 409.779 327.33Z" fill="#0EAD69" fill-opacity="0.43"/>
<path d="M65.7792 255.33C61.3442 258.117 56.213 257.932 54.3182 254.917C52.4234 251.901 62.4525 252.375 66.8874 249.589C71.3223 246.802 67.9928 235.573 69.8875 238.589C71.7823 241.604 70.2141 252.544 65.7792 255.33Z" fill="#EA0B67"/>
<path d="M39.144 288.479C42.0337 284.11 46.7842 282.162 49.7544 284.126C52.7246 286.091 43.3937 289.798 40.504 294.166C37.6143 298.535 45.2807 307.389 42.3105 305.424C39.3402 303.459 36.2544 292.847 39.144 288.479Z" fill="#0EAD69" fill-opacity="0.43"/>
<path d="M412 227.5C414.889 223.131 421.03 221.535 424 223.5C426.97 225.465 435.39 216.189 432.5 220.557C429.61 224.926 414.97 243.82 412 241.855C409.029 239.891 409.11 231.869 412 227.5Z" fill="#0EAD69" fill-opacity="0.43"/>
<path d="M357.605 274.864C360.495 270.496 379.53 292.559 382.5 294.524C385.47 296.489 380.995 263.553 378.106 267.922C375.216 272.29 360.576 291.184 357.605 289.219C354.635 287.255 354.716 279.233 357.605 274.864Z" fill="#EA0B67"/>
<path d="M317.185 348.749C319.491 353.452 317.762 359.556 314.565 361.125C311.368 362.693 315.11 374.648 312.803 369.945C310.497 365.243 301.604 343.056 304.802 341.488C307.999 339.919 314.878 344.047 317.185 348.749Z" fill="#EA0B67"/>
<path d="M178.833 365.91C181.723 361.541 186.473 359.593 189.444 361.557C192.414 363.522 183.083 367.229 180.193 371.597C177.304 375.966 184.97 384.82 182 382.855C179.03 380.89 175.944 370.279 178.833 365.91Z" fill="#0EAD69" fill-opacity="0.43"/>
<path d="M15.8334 206.91C18.7231 202.541 23.4735 200.593 26.4437 202.557C29.414 204.522 20.083 208.229 17.1933 212.597C14.3036 216.966 21.97 225.82 18.9998 223.855C16.0296 221.891 12.9437 211.279 15.8334 206.91Z" fill="#0EAD69" fill-opacity="0.43"/>
<path d="M411.833 152.91C414.723 148.541 419.473 146.593 422.444 148.557C425.414 150.522 416.083 154.229 413.193 158.597C410.304 162.966 417.97 171.82 415 169.855C412.03 167.891 408.944 157.279 411.833 152.91Z" fill="#EA0B67"/>
<path d="M251.474 354.61C256.151 356.968 258.642 361.457 257.039 364.637C255.436 367.817 250.662 358.984 245.985 356.626C241.308 354.268 233.413 362.918 235.016 359.739C236.619 356.559 246.797 352.251 251.474 354.61Z" fill="#EA0B67"/>
<path d="M58.8334 157.91C61.7231 153.541 66.4735 151.593 69.4437 153.557C72.414 155.522 63.083 159.229 60.1933 163.597C57.3036 167.966 64.97 176.82 61.9998 174.855C59.0296 172.891 55.9437 162.279 58.8334 157.91Z" fill="#0EAD69" fill-opacity="0.43"/>
<path d="M52.8334 360.91C55.7231 356.541 60.4735 354.593 63.4437 356.557C66.414 358.522 57.083 362.229 54.1933 366.597C51.3036 370.966 58.97 379.82 55.9998 377.855C53.0296 375.89 49.9437 365.279 52.8334 360.91Z" fill="#EA0B67"/>
<path d="M410.833 227.91C413.723 223.541 418.473 221.593 421.444 223.557C424.414 225.522 415.083 229.229 412.193 233.597C409.304 237.966 416.97 246.82 414 244.855C411.03 242.891 407.944 232.279 410.833 227.91Z" fill="#EA0B67"/>
<path d="M73.8334 79.9101C76.7231 75.5415 81.4735 73.5927 84.4437 75.5574C87.414 77.5222 78.083 81.2289 75.1933 85.5975C72.3036 89.9661 79.97 98.82 76.9998 96.8552C74.0296 94.8905 70.9437 84.2787 73.8334 79.9101Z" fill="#EA0B67"/>
<path d="M47.8334 235.91C50.7231 231.541 55.4735 229.593 58.4437 231.557C61.414 233.522 52.083 237.229 49.1933 241.597C46.3036 245.966 53.97 254.82 50.9998 252.855C48.0296 250.891 44.9437 240.279 47.8334 235.91Z" fill="#0EAD69" fill-opacity="0.43"/>
<path d="M146.833 44.9101C149.723 40.5415 154.473 38.5927 157.444 40.5574C160.414 42.5222 151.083 46.2289 148.193 50.5975C145.304 54.9661 152.97 63.82 150 61.8552C147.03 59.8905 143.944 49.2787 146.833 44.9101Z" fill="#EA0B67"/>
<path d="M296.833 56.9101C299.723 52.5415 304.473 50.5927 307.444 52.5574C310.414 54.5222 301.083 58.2289 298.193 62.5975C295.304 66.9661 302.97 75.82 300 73.8552C297.03 71.8905 293.944 61.2787 296.833 56.9101Z" fill="#EA0B67"/>
<path d="M387.359 42.2532C388.124 47.4348 385.889 52.0572 382.366 52.5776C378.843 53.0981 383.314 44.1087 382.549 38.927C381.784 33.7454 370.165 32.2725 373.688 31.7521C377.211 31.2317 386.593 37.0716 387.359 42.2532Z" fill="#0EAD69" fill-opacity="0.43"/>
<path d="M180.066 45.1658C182.22 49.4164 181.153 54.2876 177.683 56.0458C174.213 57.804 176.416 48.2848 174.262 44.0342C172.108 39.7835 159.821 42.7915 163.291 41.0333C166.761 39.2751 177.913 40.9151 180.066 45.1658Z" fill="#0EAD69" fill-opacity="0.43"/>
</svg>
